<svg xmlns="http://www.w3.org/2000/svg" viewBox="0 0 437.55 201.95"><defs><style>.cls-1{fill:#20356a;}.cls-2{fill:#179c49;}.cls-3{fill:#20366a;}.cls-4{fill:#199d4a;}.cls-5{fill:#1c735e;}.cls-6{fill:#0f8954;}.cls-7{fill:#194d68;}.cls-8{fill:#1a5c65;}.cls-9{fill:#1c3f69;}.cls-10{fill:#1b715f;}.cls-11{fill:#1b6d61;}.cls-12{fill:#194e68;}.cls-13{fill:#195067;}.cls-14{fill:#195866;}.cls-15{fill:#194f68;}.cls-16{fill:#1b6f60;}.cls-17{fill:#1b6e60;}.cls-18{fill:#1b735f;}.cls-19{fill:#1c7060;}.cls-20{fill:#1a4a68;}.cls-21{fill:#1b5268;}.cls-22{fill:#0f8b52;}.cls-23{fill:#1b785c;}.cls-24{fill:#0e8a53;}.cls-25{fill:#0f8b53;}.cls-26{fill:#108d52;}.cls-27{fill:#21366a;}.cls-28{fill:#fefefe;}.cls-29{fill:#fcfdfc;}.cls-30{fill:#0e8b52;}</style></defs><g id="Layer_2" data-name="Layer 2"><g id="Layer_1-2" data-name="Layer 1"><path class="cls-1" d="M221.48,46.13c4.73,1.33,7.26,5,7,10.07A10,10,0,0,1,220,65.88a20.48,20.48,0,0,1-3.58.27c-4.8,0-9.59,0-14.39,0-.77,0-1-.18-1-1q0-18.63,0-37.26c0-.61,0-1,.85-1,5.48.1,10.95-.15,16.42.13,7.07.37,11.38,6.58,9.3,13.34a7.85,7.85,0,0,1-5,5.25c-.3.12-.6.21-.9.33A.83.83,0,0,0,221.48,46.13Z"/><path class="cls-1" d="M343,145.31c4-5.86,12.87-5.47,15.71,1.15a17.65,17.65,0,0,1,2.25-2.93,8.89,8.89,0,0,1,9.37-1.82c3.44,1.13,5,3.86,5.73,7.21a13.66,13.66,0,0,1,.3,2.85c0,5.59,0,11.18,0,16.77,0,.79-.23,1-1,1a30.88,30.88,0,0,0-3.6,0c-.8,0-1-.23-1-1,0-5.39,0-10.78,0-16.18,0-4.25-3.13-6.71-7.27-5.75-2.33.54-3.77,2.43-3.79,5.14,0,4.47,0,8.94,0,13.42,0,1.2,0,2.39,0,3.59,0,.58-.2.78-.76.77-1.24,0-2.49-.07-3.72,0-.9.05-1.15-.23-1.14-1.13,0-5,0-10.06,0-15.1,0-.59,0-1.19-.09-1.79a5.65,5.65,0,0,0-9-4.12,5,5,0,0,0-2.05,4.48c0,5.47,0,10.94,0,16.41,0,1-.21,1.34-1.23,1.25a19.47,19.47,0,0,0-3.24,0c-.89.06-1.14-.21-1.13-1.12,0-6.07,0-12.14,0-18.21,0-2.59,0-5.19,0-7.78,0-.68.18-.9.87-.88,1.31,0,2.63,0,3.95,0,.56,0,.79.13.76.73C343,143.19,343,144.09,343,145.31Z"/><path class="cls-1" d="M383.22,41.2a1.32,1.32,0,0,0,.07-.32c0-.87-.28-2.06.17-2.54.59-.64,1.8-.2,2.75-.21,2.64,0,2.64,0,2.64,2.67,0,8.26,0,16.53,0,24.79,0,3.83-1,7.26-4.24,9.7a12.78,12.78,0,0,1-6.72,2.21,11.48,11.48,0,0,1-9.79-3.4c-.75-.76-.85-1.33.09-1.94a4.88,4.88,0,0,0,.54-.48c.68-.61,1.28-1.52,2.07-1.76s1.29,1,2,1.48a7.08,7.08,0,0,0,7.48.5c2.35-1.18,3-3.35,3-5.82,0-1,0-2,0-3.24a8.33,8.33,0,0,1-4.76,3.53C373,67.7,368.06,64.71,367,59.14a44.26,44.26,0,0,1-.11-13.35c.46-3.68,2.28-6.59,6.07-7.69a8.89,8.89,0,0,1,10,3S383.13,41.16,383.22,41.2Z"/><path class="cls-1" d="M303.79,57.92c1.44-4.11,2.8-8,4.16-11.83.81-2.33,1.65-4.65,2.42-7a1.17,1.17,0,0,1,1.32-1c2.87,0,2.88,0,3.83,2.67,1.9,5.41,3.78,10.82,5.68,16.23.07.23.17.44.36.91l2.49-10c.73-2.94,1.48-5.87,2.16-8.82a1.06,1.06,0,0,1,1.29-1c1.27.07,2.56,0,3.83,0,.77,0,.95.11.7.92-1.76,5.58-3.46,11.19-5.18,16.78-1,3.16-2,6.31-2.92,9.47a1,1,0,0,1-1.15.86c-3.35,0-3.34,0-4.46-3.14-1.84-5.26-3.7-10.51-5.66-16-.91,2.56-1.73,4.84-2.54,7.14-1.29,3.68-2.6,7.35-3.86,11-.26.76-.61,1.08-1.45,1-1-.11-2.33.29-3-.21s-.74-1.84-1.05-2.82c-2.47-8-4.92-16-7.42-24-.28-.88-.14-1.1.77-1a28.67,28.67,0,0,0,3.59,0c.88-.06,1.24.24,1.44,1.09,1.41,5.84,2.87,11.68,4.32,17.52C303.51,57,303.62,57.32,303.79,57.92Z"/><path class="cls-1" d="M212.17,170.1a21.65,21.65,0,0,1-12.82-4.23c-.67-.5-.75-.82-.16-1.45a30.11,30.11,0,0,0,2.27-2.77c.43-.59.69-.61,1.29-.16A16.13,16.13,0,0,0,217,164.33c3.44-.83,5.09-3.25,4.64-6.47-.31-2.23-1.85-3.35-3.79-4a45.08,45.08,0,0,0-6.29-1.43c-1.52-.32-3-.64-4.53-1.1a8.41,8.41,0,0,1-6.4-7.27c-.56-4.08,0-7.91,3.31-10.82a13.89,13.89,0,0,1,8.16-3,20.5,20.5,0,0,1,13.63,3.49c.61.41.72.67.24,1.26a29.85,29.85,0,0,0-2.09,2.92c-.43.69-.75.68-1.38.24a14.08,14.08,0,0,0-9.7-2.7,10,10,0,0,0-3.89,1.07,5.35,5.35,0,0,0-2.93,5.44c.13,2.17,1.48,3.37,3.3,4.14a33.45,33.45,0,0,0,6.25,1.57,38.66,38.66,0,0,1,5,1.31c4.73,1.67,6.91,5.19,6.74,10.2-.22,6.28-4.54,9.93-11,10.76A23.11,23.11,0,0,1,212.17,170.1Z"/><path class="cls-1" d="M241.76,118.33a21.53,21.53,0,0,1-12.93-4.25c-.59-.45-.76-.74-.2-1.36.94-1,1.58-2.6,2.72-3.1s2.14,1.17,3.31,1.73a17.28,17.28,0,0,0,11.78,1.24c3.46-.85,5.13-3.2,4.72-6.41-.29-2.29-1.84-3.43-3.83-4.13-2.8-1-5.78-1.2-8.64-1.91a14.69,14.69,0,0,1-4.37-1.54,8.58,8.58,0,0,1-4.11-5.9c-1.37-7.39,2.19-12.73,9.54-14a20.5,20.5,0,0,1,15.43,3.19c.76.5.7.82.21,1.44a26.65,26.65,0,0,0-1.88,2.62c-.47.78-.85.88-1.64.33a13.84,13.84,0,0,0-11.13-2.39c-3.45.71-5.25,2.79-5.25,6,0,2.24,1.25,3.54,3.12,4.38A30.87,30.87,0,0,0,245,95.82,38.38,38.38,0,0,1,250,97.17c4.68,1.65,6.9,5.14,6.72,10.1-.24,6.83-5,10.07-11,10.84A20,20,0,0,1,241.76,118.33Z"/><path class="cls-2" d="M96.41,54.4c-3.42-2-6.85-3.9-10.25-5.9a1.38,1.38,0,0,0-1.63,0q-9.19,5.34-18.42,10.64c-.44.25-.78.47-.77,1.06,0,2.95,0,5.9,0,8.91a2.3,2.3,0,0,0,1.21-.51c5.81-3.34,11.61-6.67,17.39-10a2.27,2.27,0,0,1,2.75,0c.81.57,1.69,1,2.53,1.56-.1,1.19-1.24,1.44-1.92,2.11-1.41-1.18-2.65-.78-4.12.1-5.61,3.35-11.29,6.58-17,9.82a1.49,1.49,0,0,0-.87,1.5c0,2.11,0,4.22-.07,6.34-.17.6-.7.87-1.17,1.14A2.33,2.33,0,0,0,63,83.42c0,3.67,0,7.34,0,11a4,4,0,0,1-.17,1.66.36.36,0,0,1-.34.22c0-.48-.05-1-.05-1.43q0-36.48,0-73a1.82,1.82,0,0,0-1.1-2c-1.19-.57-2.27-1.34-3.43-1.95a1.81,1.81,0,0,1-1.1-1.81c0-2,0-3.91,0-5.87a1.77,1.77,0,0,1,1-1.75c1.71-1,3.4-1.93,5.08-2.93a1.81,1.81,0,0,1,2,0c1.72,1,3.45,2,5.18,3a1.73,1.73,0,0,1,1,1.66q0,3,0,6a1.72,1.72,0,0,1-1,1.66c-1.32.74-2.62,1.52-4,2.26a1.22,1.22,0,0,0-.76,1.19c0,11.42,0,22.85,0,34.27a2.92,2.92,0,0,0,.1.49l1.25-.69c5.73-3.31,11.48-6.6,17.19-9.94a2.48,2.48,0,0,1,2.87,0c3.92,2.36,7.9,4.64,11.85,6.95A11.8,11.8,0,0,1,96.41,54.4Z"/><path class="cls-3" d="M153.53,162.24c0,.82-.62,1.06-1.15,1.37L108.8,188.75c-7.39,4.26-14.78,8.5-22.15,12.79a2.24,2.24,0,0,1-2.54,0Q71.48,194.28,58.81,187s0-.07-.05-.11A2,2,0,0,1,61,185c7.89,4.53,15.79,9,23.65,13.6.7.4,1.09.13,1.6-.16l58.62-33.82,5.81-3.32a4.9,4.9,0,0,0,.07-1.43V104.25a2.7,2.7,0,0,1,2-2.7c.54-.16.86,0,.84.59,0,.24,0,.48,0,.72q0,29.1,0,58.2A2.76,2.76,0,0,1,153.53,162.24Z"/><path class="cls-2" d="M17.07,116.68c0-6.42-.05-12.85,0-19.28,0-1-.25-1.25-1.25-1.24-4.55,0-9.11,0-13.66,0C1.2,96.19.31,96.13.05,95s.51-1.47,1.27-1.9c5-2.86,9.94-5.75,14.92-8.6a1.37,1.37,0,0,0,.8-1.4q0-21.45,0-42.88a1.47,1.47,0,0,0-.89-1.48c-1.48-.79-2.9-1.68-4.37-2.48a1.93,1.93,0,0,1-1.12-1.92c0-1.92,0-3.84,0-5.75a1.85,1.85,0,0,1,1-1.78c1.74-1,3.46-2,5.19-3a1.76,1.76,0,0,1,1.92,0c1.72,1,3.45,2,5.18,3a1.75,1.75,0,0,1,1,1.66q0,3,0,6A1.71,1.71,0,0,1,24,36.18c-1,.55-2,1.21-3,1.71a1.69,1.69,0,0,0-1,1.78q0,19.39,0,38.81v35.21c0,.44,0,.88-.05,1.32C19,115.69,18.39,116.76,17.07,116.68Z"/><path class="cls-4" d="M28.5,133.28c0-.43-.09-.87-.09-1.31q0-57.87,0-115.74a1.36,1.36,0,0,0-.82-1.4c-1.26-.68-2.47-1.46-3.74-2.13a1.9,1.9,0,0,1-1.14-1.91c.05-1.87,0-3.75,0-5.63a2,2,0,0,1,1.16-2c1.65-.89,3.27-1.84,4.88-2.8a1.87,1.87,0,0,1,2.12,0c1.65,1,3.31,1.93,5,2.87A1.86,1.86,0,0,1,37,5c-.05,2,0,3.92,0,5.87a1.8,1.8,0,0,1-1,1.75c-1.29.72-2.54,1.5-3.85,2.19a1.27,1.27,0,0,0-.8,1.42,4.31,4.31,0,0,1,0,.72V129.34c0,.52-.06,1-.09,1.55-.59-.57-.36-1.3-.39-2-.07-5.18,0-10.36,0-15.55,0-1.63,0-3.27,0-4.9,0-.42.18-1-.27-1.18s-.91.39-1.24.79a2.61,2.61,0,0,0-.35,1.83q0,9.27,0,18.54c0,.64,0,1.28,0,1.92C28.85,131.34,29.21,132.38,28.5,133.28Z"/><path class="cls-1" d="M213.78,106c-2.6,0-5.2,0-7.8,0-.75,0-1,.15-1,1,.37,4.23,4.11,6.74,8.62,5.74a9,9,0,0,0,4-1.9c.51-.43.81-.42,1.25.07.81.89,1.67,1.73,2.55,2.54.4.38.47.6,0,1a14,14,0,0,1-8,3.63c-1.78.15-3.73.47-5.35-.07a11.19,11.19,0,0,1-6.55-4.93,11.65,11.65,0,0,1-1.57-4.61A36,36,0,0,1,200,98.7c1-5.68,4.95-9.12,10.52-9.3,5.94-.19,9.83,2.76,11.3,8.56a29.41,29.41,0,0,1,.76,7.24c0,.73-.3.83-.92.82C219.05,106,216.41,106,213.78,106Z"/><path class="cls-1" d="M329.14,165.71a14.34,14.34,0,0,1-9.33,4.21c-.52,0-1.05-.06-1.56,0-2.93.42-5.28-.87-7.43-2.58a10.09,10.09,0,0,1-3.71-7.15c-.37-3.72-.58-7.5.47-11.17,1.51-5.31,5.54-8,11.67-7.86,4.75.07,8.46,3.28,9.8,8.48a29.33,29.33,0,0,1,.78,7.12c0,.87-.28,1-1.09,1-5.07,0-10.15,0-15.22,0-1.17,0-1.39.33-1.24,1.41.56,4,4.19,6.28,8.51,5.36a9,9,0,0,0,4-1.94c.46-.39.74-.41,1.17,0C327,163.66,328.05,164.64,329.14,165.71Z"/><path class="cls-1" d="M407.82,113.94a14.37,14.37,0,0,1-9.34,4.22c-.52,0-1.05-.06-1.56,0-2.93.41-5.28-.88-7.43-2.59a10.09,10.09,0,0,1-3.71-7.15c-.37-3.73-.58-7.51.47-11.17,1.53-5.31,5.55-8,11.68-7.86,4.71.08,8.39,3.23,9.77,8.38a28.85,28.85,0,0,1,.8,7.47c0,.82-.42.77-1,.77-5.12,0-10.23,0-15.35,0-1.18,0-1.37.37-1.22,1.43.56,4,4.19,6.27,8.51,5.34a9,9,0,0,0,4-1.94c.47-.41.75-.39,1.17,0C405.68,111.9,406.73,112.88,407.82,113.94Z"/><path class="cls-1" d="M277.28,106c-2.6,0-5.2,0-7.8,0-.72,0-1,.17-.89.94.31,4.24,4,6.79,8.56,5.81a8.85,8.85,0,0,0,4.05-2c.48-.42.76-.36,1.17.07.81.88,1.66,1.73,2.54,2.54.44.41.51.66,0,1.09a14.07,14.07,0,0,1-7.82,3.58c-1.82.18-3.81.48-5.48,0a11,11,0,0,1-6.56-4.89,12.6,12.6,0,0,1-1.73-6c-.1-3.27-.34-6.55.57-9.75,1.5-5.31,5.48-8,11.61-8,4.78,0,8.49,3.19,9.87,8.39a28.05,28.05,0,0,1,.8,7.47c0,.71-.31.76-.86.76C282.63,106,280,106,277.28,106Z"/><path class="cls-1" d="M251.81,64.11c-3.94,3.07-8.18,2.78-12.39,1.42-3.48-1.12-5.22-4.59-4.77-8.71.54-4.89,3.34-7.26,8.74-7.35,2.39,0,4.79-.07,7.19,0,1.16,0,1.31-.41,1.23-1.38-.33-4.33-3.19-6.36-7.68-5.39a9.42,9.42,0,0,0-3.43,1.34,1,1,0,0,1-1.36,0,25.87,25.87,0,0,0-2.57-1.75c-.86-.49-.64-.87-.05-1.39a13,13,0,0,1,8.3-3.23,13.93,13.93,0,0,1,6.77,1.12c3.85,1.82,5.22,5.12,5.28,9.07.08,5.75,0,11.5,0,17.25,0,.79-.31.94-1,.91A29.52,29.52,0,0,0,253,66c-.9.06-1.37-.17-1.19-1.16A5.93,5.93,0,0,0,251.81,64.11Z"/><path class="cls-1" d="M353.9,64.11c-3.52,2.82-10.32,3.1-13.95.59-2.82-1.93-3.38-4.85-3.08-7.94.47-4.9,3.35-7.22,8.76-7.29,2.44,0,4.88,0,7.31,0,.84,0,1.09-.23,1.07-1.07-.14-4.46-3.06-6.67-7.64-5.71a9,9,0,0,0-3.44,1.34,1.06,1.06,0,0,1-1.47-.07,21,21,0,0,0-2.37-1.61c-1-.56-.79-1-.06-1.62A12.7,12.7,0,0,1,344.66,38a16.21,16.21,0,0,1,7.71.16c4.35,1.18,6.83,4.64,6.88,9.75.07,5.71,0,11.42,0,17.13,0,.71-.17,1-.93,1s-1.6,0-2.39,0C354.08,66,354.08,66,353.9,64.11Z"/><path class="cls-1" d="M426.17,118.16a17.66,17.66,0,0,1-11.78-3.62c-.68-.52-.84-.9-.16-1.58a20,20,0,0,0,1.89-2.31c.49-.69.87-.86,1.67-.28a13.44,13.44,0,0,0,9.89,2.73,8,8,0,0,0,2.64-.71,3.42,3.42,0,0,0,1.92-3.66c-.17-1.19-1.09-2-2.7-2.34-2.19-.47-4.44-.43-6.66-.71l-.59-.05c-7.7-.76-8.12-6.69-6.35-11.48.91-2.48,3.07-3.74,5.56-4.27a19.76,19.76,0,0,1,15.06,2.5c.75.46.94.77.25,1.47a21.33,21.33,0,0,0-2.14,2.59c-.42.58-.74.56-1.34.2a13.23,13.23,0,0,0-9.83-2,3.53,3.53,0,0,0-2.83,2.13c-.7,1.79-.11,3.1,1.73,3.61,2.13.6,4.36.44,6.53.72s4.46.47,6.26,2a5.48,5.48,0,0,1,1.85,2.72c1.41,5.16.19,10.89-7.33,12A21.88,21.88,0,0,1,426.17,118.16Z"/><path class="cls-1" d="M271.5,169.93a17.76,17.76,0,0,1-11.81-3.62c-.67-.51-.87-.89-.18-1.57a14,14,0,0,0,1.88-2.33c.56-.86,1-.77,1.78-.22a13.7,13.7,0,0,0,7.28,2.76,11.45,11.45,0,0,0,4.72-.6,3.46,3.46,0,0,0,2.29-2.42c.51-1.91-.46-3.31-2.62-3.78s-4.44-.42-6.66-.7l-.59-.06c-7.68-.75-8.16-6.64-6.36-11.46,1-2.82,3.57-4,6.36-4.46a19.78,19.78,0,0,1,14.25,2.67c.73.45,1,.76.26,1.47a21.94,21.94,0,0,0-2.13,2.58c-.42.57-.74.6-1.35.22a13.88,13.88,0,0,0-8.05-2.25,7.08,7.08,0,0,0-3.22.78,3.22,3.22,0,0,0-1.61,3.35c.2,1.31,1.21,1.72,2.29,2,2.07.45,4.21.37,6.3.64s4.38.47,6.15,2a5.54,5.54,0,0,1,1.85,2.72c1.41,5.15.2,10.89-7.32,12A23.15,23.15,0,0,1,271.5,169.93Z"/><path class="cls-1" d="M256.18,141.65c-1.13,3.28-2.22,6.43-3.3,9.58-2.83,8.2-5.69,16.39-8.47,24.61-1.51,4.43-4.06,5.55-8.78,5.52-.52,0-.58-.27-.57-.68,0-1.35,0-2.71,0-4.07,0-.47.17-.64.63-.61,2.86.22,4-1.5,4.92-3.92a7.53,7.53,0,0,0-.12-5.69c-3-7.83-5.83-15.74-8.78-23.6-.38-1-.15-1.22.84-1.16a17.11,17.11,0,0,0,3.12,0c1.1-.12,1.49.37,1.82,1.33,2,5.71,4,11.41,6,17.11.13.37.29.73.53,1.32,1.21-3.69,2.36-7.16,3.5-10.64.9-2.76,1.81-5.52,2.7-8.29.17-.55.41-.85,1.07-.82C252.85,141.69,254.41,141.65,256.18,141.65Z"/><path class="cls-2" d="M39.82,113.33c0-.48,0-1,0-1.44q0-39.11,0-78.21a1.85,1.85,0,0,0-1.13-1.94c-1.25-.62-2.42-1.38-3.64-2.07A1.7,1.7,0,0,1,34.09,28q0-3,0-6A1.73,1.73,0,0,1,35,20.36c1.73-1,3.47-2,5.18-3a1.71,1.71,0,0,1,1.91,0c1.75,1,3.52,2,5.29,3A1.61,1.61,0,0,1,48.26,22c0,2,0,4.08,0,6.11a1.66,1.66,0,0,1-1,1.64c-1.18.67-2.32,1.41-3.54,2a1.85,1.85,0,0,0-1.13,1.95q0,27.3,0,54.61,0,12.23,0,24.44c0,.43,0,.87,0,1.31-.43-.07-.37-.44-.42-.73-.19-1.05-.19-1-1.1-.43C40.7,113.12,40.37,113.53,39.82,113.33Z"/><path class="cls-1" d="M142.22,120c0,.36.05.72.05,1.07,0,11.23,0,22.45,0,33.67a2.43,2.43,0,0,1-1.39,2.38q-27,15.53-54,31.14a2.78,2.78,0,0,1-3.19,0c-5.42-3.21-10.9-6.34-16.36-9.5-.34-.3-.52-.66-.17-1,.54-.55,1-1.25,1.94-1.21,5.19,3,10.4,5.92,15.57,8.92.64.38,1,.1,1.51-.18q18.8-10.83,37.58-21.67c4.87-2.8,9.73-5.62,14.61-8.4a1.67,1.67,0,0,0,1-1.67q0-15.27,0-30.53c0-.44,0-.87,0-1.31C140.28,121.06,140.91,120,142.22,120Z"/><path class="cls-1" d="M363.68,103.74a25,25,0,0,0,0,4.06c.73,4.49,5.73,6.55,10,4.22a6.91,6.91,0,0,0,2.06-1.62c.39-.47.64-.39,1,0,.92.94,1.86,1.86,2.85,2.73.55.49.54.81,0,1.35a11.57,11.57,0,0,1-7.62,3.57c-2,.18-4.14.51-6-.06a10.77,10.77,0,0,1-6.51-5,11.82,11.82,0,0,1-1.51-4.74,53.17,53.17,0,0,1-.05-8.37c.46-6.35,4.44-10.19,10.83-10.52a13.94,13.94,0,0,1,9.6,2.6c2.06,1.6,2.05,1.65.15,3.34-.71.64-1.33,1.59-2.16,1.84s-1.44-1-2.25-1.41a8.3,8.3,0,0,0-6.58-.74,5.68,5.68,0,0,0-4.05,5.35c-.06,1.12,0,2.24,0,3.35Z"/><path class="cls-1" d="M327,109.7c2.21-6.43,4.34-12.56,6.4-18.71.3-.88.67-1.2,1.59-1.13a23.64,23.64,0,0,0,3.47,0c1-.06,1.11.23.77,1.13-2.39,6.25-4.72,12.51-7.07,18.77-.91,2.42-1.86,4.83-2.73,7.27a1.07,1.07,0,0,1-1.28.86c-1.08-.06-2.42.34-3.16-.17s-.88-1.87-1.26-2.87c-3-7.94-6-15.88-9-23.8-.35-.93-.29-1.27.8-1.19a22.33,22.33,0,0,0,3.47,0c.88-.06,1.24.26,1.51,1.07,2,5.88,4,11.75,6,17.62C326.61,108.84,326.73,109.12,327,109.7Z"/><path class="cls-1" d="M296,137.69c0,1.08,0,2.16,0,3.23,0,.59.2.79.76.73a7.85,7.85,0,0,1,.84,0c2.69,0,2.69,0,2.69,2.75,0,2.28,0,2.28-2.32,2.28-1.95,0-1.95,0-1.95,1.92,0,4.47,0,8.94,0,13.41,0,2.09.46,2.56,2.51,2.56a5.61,5.61,0,0,0,.71,0c.83-.12,1.12.19,1.07,1-.07,1.16,0,2.32,0,3.48,0,.55-.16.79-.74.76-1,0-2,0-3,0-4-.31-6-2.51-6-6.67,0-5.07-.05-10.14,0-15.21,0-1.1-.3-1.34-1.33-1.29-1.61.09-1.62,0-1.62-1.62v-.84c0-.79-.23-1.77.15-2.33s1.41-.19,2.15-.19.62-.43.62-.86c0-2.12,0-4.24,0-6.35,0-.66.14-.92.85-.89,1.28.05,2.56.05,3.83,0,.71,0,.89.23.86.89C296,135.53,296,136.61,296,137.69Z"/><path class="cls-3" d="M130.92,127.23q0,10.71.05,21.43c0,1-.59,1.46-1.36,1.91Q110.82,161.39,92,172.24c-1.87,1.08-3.74,2.13-5.59,3.23a1.82,1.82,0,0,1-2,.12l-12-7c-.31-.46.06-.74.34-1a5.71,5.71,0,0,1,1.59-1.16c3.35,1.91,6.72,3.81,10,5.75a1.55,1.55,0,0,0,1.82,0q20.42-11.84,40.87-23.59a1.64,1.64,0,0,0,1-1.68c0-6,0-12,0-18.07C129,128.2,129.56,127.09,130.92,127.23Z"/><path class="cls-5" d="M62.45,96.31h.13c.44.4.35,1,.36,1.45,0,1.5,0,3,0,4.51,0,.69.24.88.85.43.42-.32.85-.77,1.48-.39v6.27c.77-.43,1.32-.72,1.86-1q8.48-4.89,17-9.8a2.07,2.07,0,0,1,2.33-.1c6.13,3.57,12.27,7.1,18.41,10.64a1.43,1.43,0,0,1,.26.23,26.14,26.14,0,0,1-2.08,2.26,33.64,33.64,0,0,1-5.35-2.89c-3.75-2.13-7.5-4.28-11.21-6.48a1.94,1.94,0,0,0-2.21,0q-8.58,5-17.23,9.94a2.13,2.13,0,0,0-1.22,2.1c0,6.67,0,13.34,0,20a2.23,2.23,0,0,0,1.27,2.22,5.06,5.06,0,0,1,2.06,1.39.36.36,0,0,1-.23.47,4,4,0,0,0-2,1.69c-1.25-.7-2.51-1.38-3.75-2.09a1.63,1.63,0,0,1-.77-1.53Q62.43,116,62.45,96.31Z"/><path class="cls-6" d="M65.28,102.31a2.6,2.6,0,0,0-1.61.94c-.23.22-.53.47-.84.36s-.22-.55-.22-.84c0-2.15,0-4.31,0-6.46,0-4.33.06-8.67,0-13a2.28,2.28,0,0,1,1.27-2.47c.5-.24.95-.57,1.43-.86h0a6,6,0,0,1,.1,1.64c0,.26-.1.6.34.61,5.41-3.14,10.8-6.31,16.23-9.4,4.19-2.39,2.66-2.33,6.87,0,3,1.71,6,3.52,9,5.29a2.45,2.45,0,0,1-2.25,1.91c-3.21-1.6-6.21-3.54-9.31-5.31a1.67,1.67,0,0,0-1.93,0q-9,5.25-18,10.4a1.67,1.67,0,0,0-1,1.68c.06,2.79,0,5.58,0,8.38.55.14.85-.25,1.2-.45,5.5-3.15,11-6.24,16.45-9.54,1.83-1.11,3.27-1.17,4.81.22-.12,1.22-1.11,1.62-2,2.11-.62-.38-1.06.09-1.52.35Q75.46,93,66.63,98.1c-.37.22-.76.41-1.15.61-.32,1,0,2-.22,3Z"/><path class="cls-2" d="M51.13,90.32c0-3.79,0-7.58,0-11.37q0-15.58,0-31.15a1.59,1.59,0,0,0-1-1.67c-1.24-.63-2.41-1.4-3.64-2.07a1.84,1.84,0,0,1-1-1.84c0-2,0-3.92,0-5.87a1.78,1.78,0,0,1,1-1.74c1.71-.94,3.4-1.93,5.08-2.92a1.81,1.81,0,0,1,2,0c1.68,1,3.37,2,5.08,2.93a1.85,1.85,0,0,1,1,1.74c0,2,0,3.91,0,5.87a1.92,1.92,0,0,1-1.12,1.82c-1.19.65-2.33,1.41-3.54,2a1.75,1.75,0,0,0-1.09,1.85Q54,67.63,54,87.33c0,.44,0,.88,0,1.32a12.52,12.52,0,0,1-1.73,1.43C51.89,90.29,51.57,90.63,51.13,90.32Z"/><path class="cls-1" d="M265.48,44c0-5.31,0-10.61,0-15.92,0-.92.27-1.17,1.14-1.11a22,22,0,0,0,3.35,0c.94-.08,1.11.26,1.11,1.13,0,7.1,0,14.21,0,21.31,0,3.11,0,6.22,0,9.34,0,1.79.57,2.33,2.38,2.35a4.31,4.31,0,0,0,.72,0c.92-.14,1.33.18,1.19,1.16a8.18,8.18,0,0,0,0,1.31c0,2.82,0,2.82-2.89,2.81-4.3,0-6.81-2.36-6.89-6.69-.09-5.22,0-10.45,0-15.68Z"/><path class="cls-1" d="M299.34,93.47c3.55-4.21,7.82-5.22,12-3,.25.13.48.29.72.43.67.38.85.76.27,1.45-.93,1.1-1.75,2.28-2.57,3.46-.37.52-.57.53-1.09.12A6,6,0,0,0,302,95.3c-2.13,1-2.66,2.91-2.65,5.08,0,5.42,0,10.85,0,16.27,0,.89-.19,1.2-1.11,1.13a23.41,23.41,0,0,0-3.35,0c-.88.07-1.14-.19-1.13-1.11,0-5.82,0-11.65,0-17.47,0-2.79,0-5.59,0-8.38,0-.73.12-1.08,1-1a37.64,37.64,0,0,0,3.83,0c.66,0,.83.21.79.82C299.31,91.48,299.34,92.35,299.34,93.47Z"/><path class="cls-7" d="M103.14,110.63c.2-1.13,1.13-1.57,2-2.11.58.64,1.46.73,2.16,1.15a1.74,1.74,0,0,1,1,1.64q0,12.15,0,24.3a1.72,1.72,0,0,1-.93,1.66q-10.51,6-21,12.1a1.55,1.55,0,0,1-1.69.1L66.92,139.21c.11-1.36,1.12-1.69,2.2-1.94.59-.28,1,.16,1.42.4q6.72,3.81,13.39,7.72a2.5,2.5,0,0,0,2.86,0q8.47-5,17-9.84a2.06,2.06,0,0,0,1.2-2q0-10.06,0-20.11a1.89,1.89,0,0,0-1.08-2A1.15,1.15,0,0,1,103.14,110.63Z"/><path class="cls-8" d="M153.53,162.24c0-.51,0-1,0-1.55q0-28.8,0-57.6c0-.32,0-.64,0-1s-.21-.54-.61-.29c-1.16.75-2.07,1.41-2.06,3.18.1,18.28.06,36.56.05,54.85,0,.46.16,1-.19,1.38,0-.56,0-1.12,0-1.67q0-32,0-64c0-2,.26-2.29,2.27-2.29h9.11a2,2,0,0,0,1.3-.21l-4.88-2.82L133,75.5c-.28-.16-.53-.35-.8-.52a2.1,2.1,0,0,1,2.21-1.93c4.49,2.56,9,5.11,13.46,7.69q8.59,4.92,17.18,9.87c.34.2.65.44,1,.66.1.74-.49,1-.93,1.4a23.67,23.67,0,0,0-3.57,3,10.8,10.8,0,0,0,2.64.12c1.32,0,2.63,0,3.94,0,.47,0,1-.08,1.33.36-.43,0-.86.09-1.3.09-4.43,0-8.86,0-13.3,0-1,0-1.18.29-1.18,1.21,0,8.38,0,16.76,0,25.14q0,19.2,0,38.42A2.69,2.69,0,0,1,153.53,162.24Z"/><path class="cls-9" d="M79.23,156.2c1.69,1,3.42,1.86,5,2.92a1.65,1.65,0,0,0,2,0q15.15-8.78,30.33-17.51c.14-3.42,0-6.84.06-10.26a11.33,11.33,0,0,1,0-1.43,4.51,4.51,0,0,1,2-1.52c.48-.2.88-.11.87.55-.06,4.63.14,9.25-.11,13.88-.79,1.18-2.09,1.69-3.24,2.36-9.8,5.7-19.64,11.34-29.44,17a2.53,2.53,0,0,1-2.87,0c-2.38-1.44-4.79-2.84-7.18-4.25A2.07,2.07,0,0,1,79.23,156.2Z"/><path class="cls-1" d="M287.11,52.22c0,4.31,0,8.63,0,12.94,0,.8-.23,1-1,1a28.7,28.7,0,0,0-3.47,0c-.89.06-1.13-.19-1.13-1.11,0-7.74,0-15.49,0-23.23,0-1,0-1.92,0-2.88,0-.63.19-.83.82-.81,1.28,0,2.56.06,3.84,0,.76,0,.93.22.93.94C287.09,43.44,287.11,47.83,287.11,52.22Z"/><path class="cls-1" d="M350.43,103.88c0,4.27,0,8.55,0,12.82,0,1-.3,1.27-1.26,1.2-1.19-.08-2.4-.05-3.6,0-.58,0-.73-.18-.73-.75q0-13.23,0-26.47c0-.65.22-.82.83-.8,1.28,0,2.56.06,3.84,0,.78,0,.91.26.91,1C350.42,95.18,350.43,99.53,350.43,103.88Z"/><path class="cls-10" d="M39.82,113.33c.59-.4,1.19-.78,1.78-1.19s.83-.18.86.48c0,.47-.14,1,.14,1.4,0,3.27,0,6.54,0,9.81,0,7.61,0,15.23,0,22.85A2,2,0,0,0,44,148.87a8.62,8.62,0,0,1,1.4.88c-.36,1-1.37,1.34-1.94,2.11l-.11,0C39.78,150,39.78,150,39.78,146q0-15.66,0-31.32C39.78,114.2,39.81,113.76,39.82,113.33Z"/><path class="cls-11" d="M32.86,172l-14.93-8.56a1.66,1.66,0,0,1-.9-1.56q0-10.35,0-20.71c.48-.83,1.35-1.18,2.06-1.74a.56.56,0,0,1,.76.07c0,6.69.07,13.38,0,20.08A2.41,2.41,0,0,0,21.33,162c4.54,2.55,9,5.22,13.51,7.84A6.81,6.81,0,0,0,32.86,172Z"/><path class="cls-12" d="M142.22,120c-1.11.28-1.68,1.46-2.82,1.68,0-8.75-.16-17.49,0-26.23.06-2.53-.68-3.92-2.93-4.83a22.73,22.73,0,0,1-3.14-1.86c0-1,.69-1.72,2-2.1,1.95,1.1,3.9,2.21,5.86,3.3a1.79,1.79,0,0,1,1.08,1.7q0,14.05,0,28.11A1.06,1.06,0,0,1,142.22,120Z"/><path class="cls-13" d="M130.92,127.23c-1.14.22-1.71,1.4-2.82,1.67,0-2.78,0-5.57-.06-8.35,0-6.89,0-13.78,0-20.67a1.51,1.51,0,0,0-.94-1.56c-1.31-.7-2.57-1.48-3.85-2.23a2.08,2.08,0,0,1,2.25-2c1.46.82,2.92,1.65,4.4,2.45a1.79,1.79,0,0,1,1,1.73Q130.93,112.76,130.92,127.23Z"/><path class="cls-10" d="M31.13,128.89l.09,2c0,3.54.05,7.09.07,10.63,0,4,0,8,0,12.08a1.56,1.56,0,0,0,.92,1.59c2.8,1.59,5.56,3.24,8.34,4.87-.61.77-1.51,1.23-2.18,1.95l-9.21-5.24a1.38,1.38,0,0,1-.72-1.28q0-11.12.07-22.21l.09-3C29.42,129.81,29.89,128.66,31.13,128.89Z"/><path class="cls-14" d="M43.41,151.86c.18-1.13,1.3-1.41,1.94-2.11,4.35,2.48,8.71,4.94,13,7.44q8,4.62,16,9.29c-.36,1-1.7,1.05-1.93,2.13L52.69,157.26C49.59,155.47,46.51,153.66,43.41,151.86Z"/><path class="cls-15" d="M38.36,162c.32-1.11,1.31-1.47,2.18-1.95,4.39,2.5,8.78,5,13.15,7.51q7.14,4.1,14.26,8.23c.41.23.8.51,1.2.76-.48.35-1,.68-1.42,1s-.66.68-.35,1.2Q52.88,170.4,38.36,162Z"/><path class="cls-16" d="M135.34,86.7c-.61.74-1.73,1-2,2.1-6.28-3.61-12.56-7.2-18.83-10.82-3.34-1.93-6.65-3.89-10-5.84.07-1.22,1.25-1.44,1.94-2.12l21,12.09C130.13,83.62,132.73,85.17,135.34,86.7Z"/><path class="cls-17" d="M125.53,94.12c-.94.45-1.9.87-2.25,2L95.86,80.29a1.43,1.43,0,0,1-.26-.23,6.68,6.68,0,0,0,2.25-1.91q9.53,5.46,19,10.92C119.78,90.73,122.65,92.44,125.53,94.12Z"/><path class="cls-18" d="M52.05,143.74a1.38,1.38,0,0,1-1-1.47q0-15.08,0-30.14a11.42,11.42,0,0,1,1.74-1.43c.29-.22.61-.56,1.06-.25q0,12.33,0,24.65c0,1.83,0,3.67,0,5.5,0,.43-.1.88.31,1.21C53.71,142.66,52.72,143,52.05,143.74Z"/><path class="cls-19" d="M85.83,87.56c.52-.84,1.58-1.17,2-2.11,5,2.87,10,5.72,15,8.6,3.89,2.25,7.76,4.53,11.64,6.79-.5.85-1.44,1.28-2,2.1L93.76,92.18C91.11,90.65,88.47,89.1,85.83,87.56Z"/><path class="cls-20" d="M32.86,172c0-1.3.92-1.77,2-2.09L59.9,184.25c.38.21.73.47,1.1.7a3,3,0,0,0-2.24,2q-12.82-7.36-25.63-14.73A1.2,1.2,0,0,1,32.86,172Z"/><path class="cls-21" d="M112.5,102.94c.11-1.21,1.2-1.51,2-2.1,1.27.71,2.53,1.43,3.82,2.11a2,2,0,0,1,1.29,1.94q0,18.61,0,37.23a3.35,3.35,0,0,1-.13.69q0-6.47,0-12.94c0-.44.26-1.07-.24-1.3s-.75.33-1.1.59a12.31,12.31,0,0,1-1.23.71c-.33-.38-.16-.84-.16-1.25,0-7.4,0-14.8,0-22.2,0-.4.24-.88-.2-1.21A26.05,26.05,0,0,1,112.5,102.94Z"/><path class="cls-14" d="M52.05,143.74c.32-1.13,1.4-1.38,2.23-1.93,4.57,2.6,9.14,5.19,13.7,7.82,3.76,2.17,7.5,4.38,11.25,6.57A3.42,3.42,0,0,0,76.72,158q-9.51-5.46-19-10.92C55.8,146,53.93,144.85,52.05,143.74Z"/><path class="cls-22" d="M19.89,139.45c-1.19.13-1.76,1.32-2.82,1.67V116.68c1.1-.28,1.7-1.41,2.82-1.67q0,9.24.05,18.48C19.94,135.48,19.91,137.46,19.89,139.45Z"/><path class="cls-23" d="M134.37,73.05A3.64,3.64,0,0,0,132.16,75c-4.35-2.49-8.72-5-13.07-7.47-2.55-1.47-5.08-3-7.62-4.47.36-1,1.26-1.46,2-2.11Z"/><path class="cls-24" d="M53.93,110.45c-1.14.22-1.64,1.51-2.8,1.68V90.32c1.13-.22,1.63-1.5,2.79-1.67Q53.92,99.54,53.93,110.45Z"/><path class="cls-25" d="M106.5,70c-.31,1-1.57,1.16-1.94,2.12-2.49-1.4-5-2.79-7.46-4.22-3.27-1.88-6.53-3.8-9.79-5.7.28-1,1.56-1.16,1.92-2.11,5.58,3.09,11.11,6.24,16.53,9.58A6.16,6.16,0,0,0,106.5,70Z"/><path class="cls-26" d="M113.45,60.93c-.36,1-1.32,1.41-2,2.11L98.73,55.78c-.78-.45-1.54-.92-2.32-1.38a4.36,4.36,0,0,1,2.21-2c4.59,2.62,9.17,5.23,13.74,7.88C112.72,60.53,113.07,60.75,113.45,60.93Z"/><path class="cls-27" d="M347.56,84.29c-2.68,0-2.7,0-2.67-2.63,0-.94-.41-2.17.17-2.77s1.81-.18,2.76-.19c2.61,0,2.61,0,2.61,2.56v.12C350.43,84.29,350.43,84.29,347.56,84.29Z"/><path class="cls-27" d="M287.11,29.83c0,2.7,0,2.7-2.72,2.7s-2.84,0-2.84-2.84,0-2.76,2.8-2.76S287.11,26.93,287.11,29.83Z"/><path class="cls-3" d="M169.4,96.11l-7.51-.06c-.36,0-.9.24-1-.24s.43-.5.66-.75c1.32-1.48,3.32-2.14,4.49-3.79l3.85,2.15a1.4,1.4,0,0,1,.77,1.6A1.16,1.16,0,0,1,169.4,96.11Z"/><path class="cls-19" d="M116.48,105.21c.57.31.33.85.33,1.28,0,7.32,0,14.64,0,22,0,.48,0,1,0,1.43,0,3.49,0,7,0,10.47,0,.42.14.87-.18,1.25q0-12.39,0-24.8c0-3.39,0-6.79,0-10.18A2.39,2.39,0,0,0,116.48,105.21Z"/><path class="cls-5" d="M65.26,101.68c.08-1-.3-2,.22-3C65.41,99.7,65.34,100.69,65.26,101.68Z"/><path class="cls-2" d="M65.7,82.24c-.44.24-.46-.09-.46-.37,0-.63,0-1.25,0-1.88C65.67,80.69,64.94,81.61,65.7,82.24Z"/><path class="cls-28" d="M206.56,54.76c0-1.75,0-3.51,0-5.26,0-.75.22-.94.94-.93,3,0,6.07,0,9.1,0,3.9,0,6.07,2,6.25,5.69.2,3.86-1.76,6.14-5.64,6.57-3.3.37-6.61.12-9.92.2-.61,0-.73-.26-.72-.79C206.57,58.43,206.56,56.6,206.56,54.76Z"/><path class="cls-28" d="M206.56,37.66V32.88c0-.41-.07-.82.57-.8,3.58.13,7.19-.3,10.75.26A4.93,4.93,0,0,1,222.31,37c.35,2.86-.69,5.06-2.86,6a7.77,7.77,0,0,1-3,.59c-2.95,0-5.91,0-8.86,0-.78,0-1-.21-1-1C206.6,40.93,206.56,39.3,206.56,37.66Z"/><path class="cls-28" d="M383.3,52.19c0,1.31,0,2.63,0,4,0,3.14-1.91,5.22-4.88,5.42-3.38.21-5.89-1.64-6.1-4.85a67.25,67.25,0,0,1,0-9.09c.22-3.23,2.7-5.07,6.07-4.86,3.1.19,4.88,2.19,4.89,5.48C383.3,49.55,383.3,50.87,383.3,52.19Z"/><path class="cls-28" d="M68.12,13.54c.57,1.65-.58,2.46-2.07,3.38a3.65,3.65,0,0,1-4.37,0,3.62,3.62,0,0,1-2.08-3.6,3.69,3.69,0,0,1,2.19-3.78c1.53-.88,2.76-1.17,4.12.05a.39.39,0,0,0,.11.06C68.12,10.86,68.12,10.86,68.12,13.54Z"/><path class="cls-28" d="M22.06,31.55c-.21.83.41,1.92-.33,2.48-1.19.91-2.59,2.11-3.91,2.12S15,35,13.93,34.05s-.26-2.34-.37-3.53c0-.51-.3-1.2.31-1.54,1.3-.76,2.58-2.12,3.94-2s2.74,1.21,3.92,2.11C22.47,29.61,21.86,30.71,22.06,31.55Z"/><path class="cls-29" d="M7.31,93.05,17,87.45c0,1.87,0,3.57,0,5.26,0,.47-.18.62-.63.62-3,0-6,0-9,0Z"/><path class="cls-28" d="M34,8c.61,1.88-.43,2.69-1.91,3.61a3.66,3.66,0,0,1-4.38,0A3.62,3.62,0,0,1,25.58,8a3.71,3.71,0,0,1,2.18-3.8c1.56-.87,2.76-1.14,4.12.07a.22.22,0,0,0,.11.05C33.68,5,34.59,6.06,34,8Z"/><path class="cls-30" d="M31.13,128.89c-1.05.11-1.46,1.36-2.54,1.43q0-10.83,0-21.64a4,4,0,0,1,2.19-2.25.36.36,0,0,1,.41.34,3.77,3.77,0,0,1,0,.47Q31.16,118.07,31.13,128.89Z"/><path class="cls-28" d="M211.14,101.59c-1.79,0-3.59,0-5.38,0-.4,0-.72.07-.74-.58a6.33,6.33,0,0,1,8-6.37c2.45.73,3.41,2.72,4,5,.48,2,.44,2-1.57,2Z"/><path class="cls-28" d="M318.36,153.35H313c-.39,0-.71.07-.73-.57a6.34,6.34,0,0,1,8-6.38c2.45.74,3.41,2.72,4,5,.47,2,.44,2-1.57,2Z"/><path class="cls-28" d="M397,101.59c-1.72,0-3.44,0-5.15,0-.71,0-.94-.12-.89-.9.28-4.38,4-7.24,8-6.07,2.51.73,3.47,2.75,4,5.05.45,1.89.41,1.91-1.52,1.91Z"/><path class="cls-28" d="M274.62,101.59h-5.27c-.36,0-.73.14-.77-.53a6.35,6.35,0,0,1,8-6.42c2.55.76,3.51,2.83,4,5.18.39,1.77.34,1.78-1.44,1.78Z"/><path class="cls-28" d="M247.34,53.9c1.19,0,2.39,0,3.58,0,.64,0,.94.12.91.84-.06,1.35,0,2.71,0,4.06A2.39,2.39,0,0,1,250,61.3a13.2,13.2,0,0,1-7.42.21,3.66,3.66,0,0,1-2.72-4.21A3.29,3.29,0,0,1,243.15,54a41.79,41.79,0,0,1,4.19,0Z"/><path class="cls-28" d="M349.61,53.9c1.2,0,2.4,0,3.59,0,.64,0,.82.2.81.82-.05,1.35,0,2.71,0,4.06a2.42,2.42,0,0,1-1.89,2.57,13.14,13.14,0,0,1-7.3.18,3.65,3.65,0,0,1-2.75-4.19c.16-2,1.25-3.08,3.38-3.37a3.88,3.88,0,0,1,.48,0h3.7Z"/><path class="cls-28" d="M45.27,25c.63,2-.45,2.85-2,3.79a3.57,3.57,0,0,1-4.19,0A3.73,3.73,0,0,1,36.89,25,3.65,3.65,0,0,1,39,21.35a3.63,3.63,0,0,1,4.38,0C44.87,22.27,45.89,23.1,45.27,25Z"/><path class="cls-28" d="M103.14,110.63c2.09.74,2.28,2.31,2.24,4.29-.12,6.35-.06,12.7,0,19a1.55,1.55,0,0,1-.9,1.59Q95.35,140.73,86.31,146a1.65,1.65,0,0,1-1.94,0c-4.61-2.7-9.25-5.35-13.88-8-.45-.25-.91-.48-1.37-.72-1-.61-2-1.27-3.06-1.83a1.22,1.22,0,0,1-.7-1.23q0-10.71,0-21.42a1.32,1.32,0,0,1,.78-1.31c6.15-3.53,12.29-7.06,18.42-10.64a1.47,1.47,0,0,1,1.71.09q8.05,4.68,16.14,9.32C102.64,110.39,102.9,110.5,103.14,110.63Z"/><path class="cls-28" d="M56.64,39.27c.66,2-.51,2.83-2,3.78a3.5,3.5,0,0,1-4.17,0,3.77,3.77,0,0,1-2.21-3.79,3.64,3.64,0,0,1,2.13-3.6,3.57,3.57,0,0,1,4.36,0C56.17,36.58,57.26,37.39,56.64,39.27Z"/></g></g></svg>