<svg id="Layer_1" data-name="Layer 1" xmlns="http://www.w3.org/2000/svg" xmlns:xlink="http://www.w3.org/1999/xlink" viewBox="0 0 500 500"><defs><style>.cls-1{fill:url(#linear-gradient);}</style><linearGradient id="linear-gradient" x1="302.85" y1="347.13" x2="192.85" y2="207.13" gradientUnits="userSpaceOnUse"><stop offset="0" stop-color="#21356a"/><stop offset="1" stop-color="#179c49"/></linearGradient></defs><title>Bessy</title><path class="cls-1" d="M402.52,236.48,371.8,218.74a2.1,2.1,0,0,0-.26-.13L251.28,149.18a2.6,2.6,0,0,0-2.56,0L213.87,169.3V104.89l8.92-5.15a2.56,2.56,0,0,0,1.28-2.21V85.76a2.57,2.57,0,0,0-1.28-2.22L212.6,77.66a2.55,2.55,0,0,0-2.56,0l-10.19,5.88a2.57,2.57,0,0,0-1.28,2.22V97.53a2.56,2.56,0,0,0,1.28,2.21l8.91,5.15v175h0v33a2.57,2.57,0,0,0,1.28,2.22l38.68,22.33a2.58,2.58,0,0,0,2.56,0L290,315.12a2.58,2.58,0,0,0,1.28-2.22V268.23A2.57,2.57,0,0,0,290,266l-38.69-22.33a2.55,2.55,0,0,0-2.56,0L213.87,263.8V246.08L250,225.22l56.59,32.67v65.34L250,355.91l-56.59-32.68V151.94l8.92-5.14a2.56,2.56,0,0,0,1.27-2.22V132.81a2.55,2.55,0,0,0-1.27-2.21l-10.19-5.88a2.55,2.55,0,0,0-2.56,0l-10.19,5.88a2.56,2.56,0,0,0-1.28,2.21v11.77a2.57,2.57,0,0,0,1.28,2.22l8.91,5.14V324.71a2.55,2.55,0,0,0,1.28,2.21l59.14,34.16a2.64,2.64,0,0,0,1.28.34,2.66,2.66,0,0,0,1.28-.34l59.14-34.16a2.55,2.55,0,0,0,1.28-2.21V256.42a2.57,2.57,0,0,0-1.28-2.22l-59.14-34.15a2.6,2.6,0,0,0-2.56,0l-34.85,20.12V222.45L250,201.59l77.05,44.49v89L250,379.53l-77-44.48V126.11l8.91-5.14a2.57,2.57,0,0,0,1.28-2.22V107a2.57,2.57,0,0,0-1.28-2.22l-10.19-5.88a2.55,2.55,0,0,0-2.56,0l-10.19,5.88a2.57,2.57,0,0,0-1.28,2.22v11.76a2.57,2.57,0,0,0,1.28,2.22l8.91,5.15v210.4a2.57,2.57,0,0,0,1.28,2.22l79.6,46A2.53,2.53,0,0,0,250,385a2.56,2.56,0,0,0,1.28-.34l79.6-46a2.57,2.57,0,0,0,1.28-2.22V244.6a2.56,2.56,0,0,0-1.28-2.21l-79.6-46a2.55,2.55,0,0,0-2.56,0l-34.85,20.12V198.83L250,178l97.51,56.3V346.86L250,403.15l-97.5-56.29V95.28l8.91-5.14a2.57,2.57,0,0,0,1.28-2.22V76.15a2.56,2.56,0,0,0-1.28-2.21l-10.19-5.88a2.55,2.55,0,0,0-2.56,0l-10.19,5.88a2.56,2.56,0,0,0-1.28,2.21V87.92a2.57,2.57,0,0,0,1.28,2.22l8.91,5.14V348.33a2.57,2.57,0,0,0,1.28,2.22l100.06,57.77a2.58,2.58,0,0,0,2.56,0l100.06-57.77a2.57,2.57,0,0,0,1.28-2.22V232.79a2.55,2.55,0,0,0-1.28-2.21L251.28,172.81a2.55,2.55,0,0,0-2.56,0l-34.85,20.11V175.21L250,154.35l119.21,68.82.26.13,22.23,12.84H370.52A2.55,2.55,0,0,0,368,238.7v120L250,426.78,132,358.67V267.34h0V137.14l7.62-4.4a2.57,2.57,0,0,0,1.28-2.22V118.75a2.55,2.55,0,0,0-1.28-2.21l-10.19-5.88a2.55,2.55,0,0,0-2.56,0l-10.19,5.88a2.56,2.56,0,0,0-1.28,2.21v11.77a2.57,2.57,0,0,0,1.28,2.22l10.19,5.88h0v80.86h0l-29.43,17a2.55,2.55,0,0,0,1.27,4.77h28.17v38.62h0v80.27a2.57,2.57,0,0,0,1.28,2.22L248.72,432a2.64,2.64,0,0,0,1.28.34,2.66,2.66,0,0,0,1.28-.34L371.8,362.36a2.57,2.57,0,0,0,1.28-2.22V241.25h28.17a2.55,2.55,0,0,0,1.27-4.77ZM183.22,134.29l7.64-4.41,7.63,4.41v8.82l-7.63,4.4-7.64-4.4Zm-20.46-25.83,7.64-4.4,7.63,4.4v8.82l-7.63,4.41-7.64-4.41ZM142.31,77.63l7.63-4.41,7.63,4.41v8.81l-7.63,4.41-7.63-4.4Zm61.37,9.61,7.64-4.41L219,87.24v8.81l-7.63,4.41-7.64-4.41Zm10.2,182.46L250,248.85l36.13,20.85v41.72L250,332.28l-36.12-20.86ZM120.56,129.05v-8.82l7.63-4.41,7.64,4.41v8.82l-7.64,4.4ZM108.3,236.14l18.62-10.75v10.75Z"/></svg>