<svg id="Layer_1" data-name="Layer 1" xmlns="http://www.w3.org/2000/svg" viewBox="0 0 500 500"><defs><style>.cls-1{fill:#fff;}</style></defs><title>Bessy</title><path class="cls-1" d="M246,248.54a14.5,14.5,0,0,0-2.16-1.4,2.08,2.08,0,0,1,0-3.68,14.46,14.46,0,0,0,1.94-1.28,14.72,14.72,0,0,0,4.5-5.7,17.34,17.34,0,0,0,1.48-7.15,22.45,22.45,0,0,0-2.39-10.68,16.22,16.22,0,0,0-7.22-6.91,26.48,26.48,0,0,0-12-2.45H203.09a2.09,2.09,0,0,0-2.08,2.09v69.78a2.08,2.08,0,0,0,2.08,2.09H231a25.19,25.19,0,0,0,11.49-2.49,17.77,17.77,0,0,0,7.58-7.07,20.83,20.83,0,0,0,2.65-10.58V263a19.29,19.29,0,0,0-1.73-8.13A16.58,16.58,0,0,0,246,248.54Zm-17.75-29.63q6.51,0,9.77,2.74c2.17,1.83,3.25,4.6,3.25,8.29q0,5.3-2.92,8t-8.68,2.7H213.42a2.1,2.1,0,0,1-2.09-2.09V221a2.09,2.09,0,0,1,2.09-2.08Zm14,43.28a10.38,10.38,0,0,1-3.61,8.44q-3.61,3-11.5,3H213.42a2.1,2.1,0,0,1-2.09-2.09V252.07a2.1,2.1,0,0,1,2.09-2.09h16.27a15.67,15.67,0,0,1,7.18,1.45,9,9,0,0,1,4.09,4.15,14.71,14.71,0,0,1,1.3,6.46Z"/><path class="cls-1" d="M295.06,233a19,19,0,0,0-11.29-3.31,23.55,23.55,0,0,0-12,2.9,18.78,18.78,0,0,0-7.6,8.44,31.09,31.09,0,0,0-2.62,13.38v6a27.93,27.93,0,0,0,2.72,12.84,18.36,18.36,0,0,0,7.91,8.07l4.73,2.5a2.09,2.09,0,0,0,1,.24h6.8A25,25,0,0,0,294.5,282a28.58,28.58,0,0,0,7.07-4.28,2.1,2.1,0,0,0,.17-3.1l-3.9-3.9a2.07,2.07,0,0,0-2.72-.2,18.23,18.23,0,0,1-4.18,2.4,16.36,16.36,0,0,1-6.26,1.27q-6.36,0-9.81-3.51a12.29,12.29,0,0,1-3.28-7.27,2.09,2.09,0,0,1,2.08-2.34h28.92a2.08,2.08,0,0,0,2.08-2.08v-1.38a40.76,40.76,0,0,0-2.47-15A20.48,20.48,0,0,0,295.06,233Zm-21.34,19.68a2.09,2.09,0,0,1-2.08-2.35,14.32,14.32,0,0,1,3-7.42q3.23-3.85,9.13-3.86a9.35,9.35,0,0,1,7.7,3.58,16,16,0,0,1,3.07,7.65,2.09,2.09,0,0,1-2.07,2.4Z"/><path class="cls-1" d="M354.6,245a62,62,0,0,0-11.22-3.26l-.56-.1-.56-.1-.38-.08a3.1,3.1,0,0,1-.38-.07,84.14,84.14,0,0,1-9-2.16,13.23,13.23,0,0,1-5.39-3.23,8.18,8.18,0,0,1-2.16-6v-.05a10,10,0,0,1,4.2-8.57q4.18-3,11.77-3a24,24,0,0,1,8.42,1.55,32.67,32.67,0,0,1,6.75,3.49,2.09,2.09,0,0,0,2.86-.51l3.47-4.83a2.09,2.09,0,0,0-.55-3,43.09,43.09,0,0,0-5.56-3.08,38.91,38.91,0,0,0-7.58-2.56,35.21,35.21,0,0,0-7.81-.87,35.82,35.82,0,0,0-14.19,2.54,19.42,19.42,0,0,0-9,7.4,21.49,21.49,0,0,0-3.07,11.73v.05q0,7.83,3.3,12.08a17.08,17.08,0,0,0,8,5.85A78.14,78.14,0,0,0,338,251.05l.76.16a1.27,1.27,0,0,0,.34,0,1,1,0,0,1,.33.05,57.67,57.67,0,0,1,8.21,2,12,12,0,0,1,5.19,3.35,8.91,8.91,0,0,1,2,6.13v.05a9.56,9.56,0,0,1-4.43,8.42q-4.43,3-12.46,3a32.37,32.37,0,0,1-11-1.83,29,29,0,0,1-7.72-4.21,2.1,2.1,0,0,0-2.9.32l-3.81,4.69a2.08,2.08,0,0,0,.35,3,37,37,0,0,0,6.07,3.74,37.77,37.77,0,0,0,8.93,3.05l4.57,1a2,2,0,0,0,.43,0H338a38.25,38.25,0,0,0,14.67-2.52,19.93,19.93,0,0,0,9.29-7.32,20.41,20.41,0,0,0,3.2-11.57v-.1q0-7.28-3-11.47A17.48,17.48,0,0,0,354.6,245Z"/><path class="cls-1" d="M414.57,245a62,62,0,0,0-11.22-3.26l-.56-.1-.56-.1-.38-.08a3.1,3.1,0,0,1-.38-.07,84.14,84.14,0,0,1-9-2.16A13.23,13.23,0,0,1,387.1,236a8.18,8.18,0,0,1-2.16-6v-.05a10,10,0,0,1,4.2-8.57q4.2-3,11.77-3a24,24,0,0,1,8.42,1.55,32.74,32.74,0,0,1,6.76,3.49,2.09,2.09,0,0,0,2.86-.51l3.46-4.83a2.09,2.09,0,0,0-.55-3A43.09,43.09,0,0,0,416.3,212a38.69,38.69,0,0,0-7.58-2.56,35.21,35.21,0,0,0-7.81-.87,35.85,35.85,0,0,0-14.19,2.54,19.47,19.47,0,0,0-9,7.4,21.49,21.49,0,0,0-3.07,11.73v.05q0,7.83,3.3,12.08a17.08,17.08,0,0,0,8,5.85A78.42,78.42,0,0,0,398,251.05l.77.16a1.14,1.14,0,0,0,.33,0,.88.88,0,0,1,.33.05,57.67,57.67,0,0,1,8.21,2,12,12,0,0,1,5.19,3.35,8.91,8.91,0,0,1,2,6.13v.05a9.56,9.56,0,0,1-4.43,8.42q-4.43,3-12.46,3a32.46,32.46,0,0,1-11-1.83,29,29,0,0,1-7.72-4.21,2.1,2.1,0,0,0-2.9.32l-3.81,4.69a2.08,2.08,0,0,0,.35,3,37,37,0,0,0,6.07,3.74,37.77,37.77,0,0,0,8.93,3.05l4.57,1a2.09,2.09,0,0,0,.43,0H398a38.34,38.34,0,0,0,14.68-2.52,20,20,0,0,0,9.28-7.32,20.33,20.33,0,0,0,3.2-11.57v-.1q0-7.28-3-11.47A17.48,17.48,0,0,0,414.57,245Z"/><path class="cls-1" d="M464.79,231.89l-9.92,30.31a2.09,2.09,0,0,1-3.95.05l-10.75-30.41a2.1,2.1,0,0,0-2-1.39h-6.11a2.09,2.09,0,0,0-2,2.81L448,281.73a2.08,2.08,0,0,1,0,1.37L445.77,290a2.6,2.6,0,0,1-.1.25,9.17,9.17,0,0,1-2.92,3.89,8,8,0,0,1-4.6,1.17h0a2.1,2.1,0,0,0-2.09,2.09v5.8a2.09,2.09,0,0,0,2.09,2.08h0a23.94,23.94,0,0,0,7.12-.91,11.17,11.17,0,0,0,4.88-3,15.59,15.59,0,0,0,3.21-5.72l21.52-62.39a2.08,2.08,0,0,0-2-2.77h-6.14A2.08,2.08,0,0,0,464.79,231.89Z"/><path class="cls-1" d="M186.82,214.86l-16.23-9.37-.14-.07-63.53-36.68a1.36,1.36,0,0,0-1.35,0L87.16,179.37v-34l4.71-2.72a1.35,1.35,0,0,0,.68-1.17v-6.22a1.35,1.35,0,0,0-.68-1.17L86.49,131a1.36,1.36,0,0,0-1.35,0l-5.39,3.11a1.36,1.36,0,0,0-.67,1.17v6.22a1.36,1.36,0,0,0,.67,1.17l4.71,2.71v92.44h0v17.45a1.35,1.35,0,0,0,.68,1.17l20.43,11.79a1.36,1.36,0,0,0,1.35,0l20.44-11.79a1.34,1.34,0,0,0,.67-1.17v-23.6a1.34,1.34,0,0,0-.67-1.17l-20.44-11.8a1.36,1.36,0,0,0-1.35,0L87.16,229.29v-9.36l19.09-11,29.89,17.26v34.52l-29.89,17.25-29.9-17.25V170.2l4.71-2.72a1.34,1.34,0,0,0,.68-1.17V160.1a1.34,1.34,0,0,0-.68-1.17l-5.38-3.11a1.36,1.36,0,0,0-1.35,0L69,158.93a1.34,1.34,0,0,0-.68,1.17v6.21a1.34,1.34,0,0,0,.68,1.17l4.7,2.72v91.26a1.34,1.34,0,0,0,.68,1.17l31.24,18a1.29,1.29,0,0,0,1.35,0l31.24-18a1.34,1.34,0,0,0,.68-1.17V225.39a1.35,1.35,0,0,0-.68-1.17l-31.24-18a1.36,1.36,0,0,0-1.35,0L87.16,216.81v-9.36l19.09-11,40.7,23.5v47l-40.7,23.49-40.7-23.49V156.56l4.71-2.72a1.36,1.36,0,0,0,.67-1.17v-6.22a1.36,1.36,0,0,0-.67-1.17l-5.39-3.1a1.31,1.31,0,0,0-1.35,0l-5.38,3.1a1.35,1.35,0,0,0-.68,1.17v6.22a1.35,1.35,0,0,0,.68,1.17l4.71,2.72V267.71a1.36,1.36,0,0,0,.67,1.17l42,24.27a1.29,1.29,0,0,0,1.35,0L149,268.88a1.36,1.36,0,0,0,.68-1.17V219.15A1.35,1.35,0,0,0,149,218l-42-24.28a1.36,1.36,0,0,0-1.35,0L87.16,204.33V195l19.09-11,51.5,29.74v59.47l-51.5,29.74L54.74,273.16V140.27l4.71-2.72a1.33,1.33,0,0,0,.67-1.17v-6.21a1.33,1.33,0,0,0-.67-1.17l-5.39-3.11a1.36,1.36,0,0,0-1.35,0L47.33,129a1.33,1.33,0,0,0-.67,1.17v6.21a1.33,1.33,0,0,0,.67,1.17L52,140.27V273.94a1.35,1.35,0,0,0,.67,1.17l52.86,30.52a1.36,1.36,0,0,0,1.35,0l52.86-30.52a1.33,1.33,0,0,0,.67-1.17v-61a1.34,1.34,0,0,0-.67-1.17l-52.86-30.52a1.36,1.36,0,0,0-1.35,0L87.16,191.85v-9.36l19.09-11,63,36.36.13.07,11.75,6.78H169.91a1.35,1.35,0,0,0-1.35,1.35V279.4l-62.31,36-62.32-36V231.16h0V162.38l4-2.32a1.35,1.35,0,0,0,.68-1.17v-6.22A1.35,1.35,0,0,0,48,151.5l-5.38-3.11a1.36,1.36,0,0,0-1.35,0l-5.39,3.11a1.36,1.36,0,0,0-.67,1.17v6.22a1.36,1.36,0,0,0,.67,1.17l5.39,3.1h0v42.71h0l-15.55,9a1.35,1.35,0,0,0,.67,2.52H41.23v20.4h0v42.4a1.34,1.34,0,0,0,.68,1.17l63.66,36.76a1.36,1.36,0,0,0,1.35,0l63.67-36.76a1.35,1.35,0,0,0,.67-1.17v-62.8h14.88a1.35,1.35,0,0,0,.68-2.52ZM71,160.88l4-2.33,4,2.33v4.65l-4,2.33-4-2.33ZM60.16,147.23l4-2.32,4,2.32v4.66l-4,2.33-4-2.33ZM49.36,131l4-2.33,4,2.33v4.65l-4,2.33-4-2.33ZM81.78,136l4-2.33,4,2.33v4.66l-4,2.33-4-2.33Zm5.38,96.39,19.09-11,19.08,11v22l-19.08,11-19.09-11Zm-49.29-74.3v-4.66l4-2.33,4,2.33v4.66l-4,2.32Zm-6.48,56.57L41.23,209v5.68Z"/></svg>