<svg xmlns="http://www.w3.org/2000/svg" viewBox="0 0 253 161"><defs><style>.cls-1,.cls-37{fill:#e6e6e6;}.cls-1,.cls-2,.cls-3,.cls-35{stroke:#999;stroke-linecap:round;}.cls-1,.cls-2,.cls-3{stroke-linejoin:round;stroke-width:3px;}.cls-2{fill:none;}.cls-3{fill:#999;}.cls-4{font-size:5.71px;font-family:Calibri-Bold, Calibri;font-weight:700;}.cls-35,.cls-36,.cls-4{fill:gray;}.cls-5{letter-spacing:5.77em;}.cls-6{letter-spacing:-0.01em;}.cls-7{letter-spacing:0em;}.cls-8{letter-spacing:-0.01em;}.cls-9{letter-spacing:-0.01em;}.cls-10{letter-spacing:0em;}.cls-11{letter-spacing:-0.02em;}.cls-12{letter-spacing:-0.03em;}.cls-13{letter-spacing:-0.01em;}.cls-14{letter-spacing:-0.01em;}.cls-15{letter-spacing:0em;}.cls-16{letter-spacing:-0.03em;}.cls-17{letter-spacing:-0.02em;}.cls-18{letter-spacing:-0.03em;}.cls-19{letter-spacing:-0.01em;}.cls-20{letter-spacing:0.12em;}.cls-21{letter-spacing:-0.02em;}.cls-22{letter-spacing:-0.02em;}.cls-23{letter-spacing:-0.01em;}.cls-24{letter-spacing:-0.01em;}.cls-25{letter-spacing:0.12em;}.cls-26{letter-spacing:0.12em;}.cls-27{letter-spacing:-0.02em;}.cls-28{letter-spacing:0em;}.cls-29{letter-spacing:0em;}.cls-30{letter-spacing:0em;}.cls-31{letter-spacing:0em;}.cls-32{letter-spacing:-0.02em;}.cls-33{letter-spacing:-0.02em;}.cls-34{letter-spacing:-0.01em;}.cls-35{stroke-miterlimit:10;}</style></defs><g id="Layer_2" data-name="Layer 2"><g id="Layer_2-2" data-name="Layer 2"><g id="ID_Front" data-name="ID Front"><rect class="cls-1" x="1.5" y="1.5" width="250" height="158" rx="11.81"/></g><path class="cls-2" d="M123.52,55.3A25.3,25.3,0,0,1,98.22,30"/><path class="cls-2" d="M121.29,43.4h0a0,0,0,0,1,0,0v0a8.93,8.93,0,0,1-8.93,8.93h0a0,0,0,0,1,0,0v0A8.93,8.93,0,0,1,121.29,43.4Z" transform="translate(233.65 95.72) rotate(-180)"/><path class="cls-2" d="M111.62,53.07h0a0,0,0,0,1,0,0v0A8.93,8.93,0,0,1,102.69,62h0a0,0,0,0,1,0,0v0A8.93,8.93,0,0,1,111.62,53.07Z" transform="translate(214.3 115.07) rotate(180)"/><path class="cls-2" d="M112.93,38h0a0,0,0,0,1,0,0v0a7.85,7.85,0,0,1-7.85,7.85h0a0,0,0,0,1,0,0v0A7.85,7.85,0,0,1,112.93,38Z" transform="matrix(-0.99, -0.15, 0.15, -0.99, 210.53, 99.75)"/><path class="cls-2" d="M103.26,45.19h0a0,0,0,0,1,0,0v0A7.85,7.85,0,0,1,95.4,53h0a0,0,0,0,1,0,0v0A7.85,7.85,0,0,1,103.26,45.19Z" transform="translate(190.21 112.5) rotate(-171.41)"/><path class="cls-2" d="M107.29,32.06h0a0,0,0,0,1,0,0v0a6.54,6.54,0,0,1-6.54,6.54h0a0,0,0,0,1,0,0v0A6.54,6.54,0,0,1,107.29,32.06Z" transform="translate(193.2 99.47) rotate(-163.04)"/><path class="cls-2" d="M98.44,36.78h0a0,0,0,0,1,0,0v0a6.54,6.54,0,0,1-6.54,6.54h0a0,0,0,0,1,0,0v0a6.54,6.54,0,0,1,6.54-6.54Z" transform="translate(174.51 106.11) rotate(-163.04)"/><path class="cls-2" d="M129.48,55.3A25.3,25.3,0,0,0,154.78,30"/><path class="cls-2" d="M131.71,43.4h0a8.93,8.93,0,0,1,8.93,8.93v0a0,0,0,0,1,0,0h0a8.93,8.93,0,0,1-8.93-8.93v0A0,0,0,0,1,131.71,43.4Z"/><path class="cls-2" d="M141.38,53.07h0A8.93,8.93,0,0,1,150.31,62v0a0,0,0,0,1,0,0h0a8.93,8.93,0,0,1-8.93-8.93v0A0,0,0,0,1,141.38,53.07Z"/><path class="cls-2" d="M140.07,38h0a7.85,7.85,0,0,1,7.85,7.85v0a0,0,0,0,1,0,0h0A7.85,7.85,0,0,1,140.07,38v0A0,0,0,0,1,140.07,38Z" transform="translate(-4.65 21.97) rotate(-8.59)"/><path class="cls-2" d="M149.74,45.19h0A7.85,7.85,0,0,1,157.6,53v0a0,0,0,0,1,0,0h0a7.85,7.85,0,0,1-7.85-7.85v0a0,0,0,0,1,0,0Z" transform="translate(-5.61 23.5) rotate(-8.59)"/><path class="cls-2" d="M145.71,32.06h0a6.54,6.54,0,0,1,6.54,6.54v0a0,0,0,0,1,0,0h0a6.54,6.54,0,0,1-6.54-6.54v0A0,0,0,0,1,145.71,32.06Z" transform="translate(-3.83 44.99) rotate(-16.96)"/><path class="cls-2" d="M154.56,36.78h0a6.54,6.54,0,0,1,6.54,6.54v0a0,0,0,0,1,0,0h0a6.54,6.54,0,0,1-6.54-6.54v0A0,0,0,0,1,154.56,36.78Z" transform="translate(-4.82 47.77) rotate(-16.96)"/><path class="cls-2" d="M142.5,23.5a16,16,0,1,1-16-16A16,16,0,0,1,142.5,23.5Z"/><path class="cls-2" d="M140.57,31.13a16,16,0,0,1-29.15-2.27,17.09,17.09,0,0,1,6.08-1.36c5.84-.19,7.9,2.93,14,4A21.67,21.67,0,0,0,140.57,31.13Z"/><path class="cls-2" d="M126.5,30V23.5"/><circle class="cls-3" cx="126.5" cy="18.5" r="4"/><circle class="cls-2" cx="123" cy="22" r="1.5"/><circle class="cls-2" cx="128.5" cy="23.5" r="1"/><text class="cls-4" transform="translate(13.31 74.64)"><tspan class="cls-5">	</tspan><tspan x="34.24" y="0">Lo</tspan><tspan class="cls-6" x="39.72" y="0">r</tspan><tspan x="41.68" y="0">em i</tspan><tspan class="cls-7" x="51.89" y="0">p</tspan><tspan x="54.92" y="0">sum dolor sit am</tspan><tspan class="cls-8" x="94.52" y="0">e</tspan><tspan x="97.35" y="0">t, </tspan><tspan class="cls-7" x="102.09" y="0">c</tspan><tspan x="104.45" y="0">onsec</tspan><tspan class="cls-9" x="118.12" y="0">t</tspan><tspan class="cls-8" x="120.03" y="0">e</tspan><tspan class="cls-10" x="122.86" y="0">tuer adipiscing elit, sed diam nonum</tspan><tspan class="cls-11" x="208.99" y="0">m</tspan><tspan x="213.53" y="0">y nibh </tspan><tspan x="0" y="6.85">euismod</tspan><tspan class="cls-12" x="20.38" y="6.85"> </tspan><tspan x="21.51" y="6.85">tincidu</tspan><tspan class="cls-13" x="37.83" y="6.85">n</tspan><tspan x="40.83" y="6.85">t</tspan><tspan class="cls-12" x="42.81" y="6.85"> </tspan><tspan x="43.94" y="6.85">ut</tspan><tspan class="cls-12" x="48.98" y="6.85"> </tspan><tspan x="50.1" y="6.85">lao</tspan><tspan class="cls-14" x="57.39" y="6.85">r</tspan><tspan x="59.35" y="6.85">e</tspan><tspan class="cls-8" x="62.23" y="6.85">e</tspan><tspan x="65.06" y="6.85">t</tspan><tspan class="cls-12" x="67.04" y="6.85"> </tspan><tspan class="cls-15" x="68.16" y="6.85">dolo</tspan><tspan class="cls-14" x="78.76" y="6.85">r</tspan><tspan x="80.73" y="6.85">e</tspan><tspan class="cls-16" x="83.6" y="6.85"> </tspan><tspan x="84.72" y="6.85">magna</tspan><tspan class="cls-12" x="100.77" y="6.85"> </tspan><tspan x="101.89" y="6.85">aliquam</tspan><tspan class="cls-12" x="121.1" y="6.85"> </tspan><tspan x="122.22" y="6.85">e</tspan><tspan class="cls-17" x="125.09" y="6.85">r</tspan><tspan class="cls-13" x="127" y="6.85">a</tspan><tspan x="129.76" y="6.85">t</tspan><tspan class="cls-12" x="131.74" y="6.85"> </tspan><tspan class="cls-13" x="132.86" y="6.85">v</tspan><tspan x="135.51" y="6.85">olutp</tspan><tspan class="cls-13" x="148.08" y="6.85">a</tspan><tspan x="150.85" y="6.85">t.</tspan><tspan class="cls-18" x="154.35" y="6.85"> </tspan><tspan x="155.48" y="6.85">Ut</tspan><tspan class="cls-12" x="161.18" y="6.85"> </tspan><tspan x="162.31" y="6.85">wisi</tspan><tspan class="cls-12" x="171.64" y="6.85"> </tspan><tspan x="172.76" y="6.85">enim</tspan><tspan class="cls-12" x="184.74" y="6.85"> </tspan><tspan x="185.87" y="6.85">ad</tspan><tspan class="cls-12" x="191.75" y="6.85"> </tspan><tspan x="192.87" y="6.85">minim</tspan><tspan class="cls-12" x="208.02" y="6.85"> </tspan><tspan class="cls-19" x="209.15" y="6.85">v</tspan><tspan x="211.79" y="6.85">eniam, </tspan><tspan x="0" y="13.7">quis</tspan><tspan class="cls-20" x="9.8" y="13.7"> </tspan><tspan x="11.76" y="13.7">no</tspan><tspan class="cls-6" x="17.89" y="13.7">s</tspan><tspan x="20.1" y="13.7">trud</tspan><tspan class="cls-20" x="30.23" y="13.7"> </tspan><tspan class="cls-21" x="32.19" y="13.7">e</tspan><tspan class="cls-22" x="34.97" y="13.7">x</tspan><tspan x="37.46" y="13.7">e</tspan><tspan class="cls-23" x="40.33" y="13.7">r</tspan><tspan x="42.28" y="13.7">ci</tspan><tspan class="cls-20" x="46.07" y="13.7"> </tspan><tspan class="cls-24" x="48.02" y="13.7">ta</tspan><tspan x="52.71" y="13.7">tion</tspan><tspan class="cls-20" x="62.18" y="13.7"> </tspan><tspan x="64.14" y="13.7">ullam</tspan><tspan class="cls-7" x="77.46" y="13.7">c</tspan><tspan x="79.82" y="13.7">orper</tspan><tspan class="cls-20" x="92.88" y="13.7"> </tspan><tspan x="94.84" y="13.7">suscipit</tspan><tspan class="cls-25" x="112.68" y="13.7"> </tspan><tspan x="114.64" y="13.7">lobortis</tspan><tspan class="cls-25" x="132.88" y="13.7"> </tspan><tspan x="134.84" y="13.7">nisl</tspan><tspan class="cls-26" x="142.98" y="13.7"> </tspan><tspan x="144.94" y="13.7">ut</tspan><tspan class="cls-25" x="149.98" y="13.7"> </tspan><tspan x="151.94" y="13.7">aliquip</tspan><tspan class="cls-26" x="168.14" y="13.7"> </tspan><tspan class="cls-27" x="170.1" y="13.7">e</tspan><tspan x="172.88" y="13.7">x</tspan><tspan class="cls-25" x="175.51" y="13.7"> </tspan><tspan x="177.46" y="13.7">ea</tspan><tspan class="cls-25" x="183.15" y="13.7"> </tspan><tspan class="cls-28" x="185.11" y="13.7">c</tspan><tspan x="187.47" y="13.7">onsequ</tspan><tspan class="cls-13" x="204.88" y="13.7">a</tspan><tspan x="207.64" y="13.7">t.</tspan><tspan class="cls-26" x="211.14" y="13.7"> </tspan><tspan x="213.1" y="13.7">Lo</tspan><tspan class="cls-14" x="218.58" y="13.7">r</tspan><tspan x="220.54" y="13.7">em </tspan><tspan x="0" y="20.54">i</tspan><tspan class="cls-7" x="1.4" y="20.54">p</tspan><tspan x="4.44" y="20.54">sum</tspan><tspan class="cls-29" x="14.42" y="20.54"> </tspan><tspan x="15.69" y="20.54">dolor</tspan><tspan class="cls-29" x="28.32" y="20.54"> </tspan><tspan x="29.6" y="20.54">sit</tspan><tspan class="cls-29" x="35.26" y="20.54"> </tspan><tspan x="36.53" y="20.54">am</tspan><tspan class="cls-8" x="43.99" y="20.54">e</tspan><tspan x="46.83" y="20.54">t,</tspan><tspan class="cls-29" x="50.28" y="20.54"> </tspan><tspan class="cls-7" x="51.55" y="20.54">c</tspan><tspan x="53.91" y="20.54">onsec</tspan><tspan class="cls-9" x="67.58" y="20.54">t</tspan><tspan class="cls-8" x="69.49" y="20.54">e</tspan><tspan x="72.32" y="20.54">tuer</tspan><tspan class="cls-29" x="82.26" y="20.54"> </tspan><tspan x="83.54" y="20.54">adipiscing</tspan><tspan class="cls-29" x="107.12" y="20.54"> </tspan><tspan x="108.4" y="20.54">elit,</tspan><tspan class="cls-29" x="117.52" y="20.54"> </tspan><tspan x="118.8" y="20.54">sed</tspan><tspan class="cls-30" x="127.01" y="20.54"> </tspan><tspan x="128.29" y="20.54">diam</tspan><tspan class="cls-31" x="140.21" y="20.54"> </tspan><tspan x="141.49" y="20.54">nonum</tspan><tspan class="cls-32" x="158.39" y="20.54">m</tspan><tspan x="162.92" y="20.54">y</tspan><tspan class="cls-30" x="165.63" y="20.54"> </tspan><tspan x="166.91" y="20.54">nibh</tspan><tspan class="cls-31" x="177.5" y="20.54"> </tspan><tspan x="178.77" y="20.54">euismod</tspan><tspan class="cls-30" x="199.16" y="20.54"> </tspan><tspan x="200.44" y="20.54">tincidu</tspan><tspan class="cls-13" x="216.75" y="20.54">n</tspan><tspan x="219.76" y="20.54">t</tspan><tspan class="cls-31" x="221.74" y="20.54"> </tspan><tspan x="223.02" y="20.54">ut </tspan><tspan x="0" y="27.39">lao</tspan><tspan class="cls-6" x="7.29" y="27.39">r</tspan><tspan x="9.25" y="27.39">e</tspan><tspan class="cls-8" x="12.12" y="27.39">e</tspan><tspan x="14.96" y="27.39">t dolo</tspan><tspan class="cls-6" x="28.82" y="27.39">r</tspan><tspan x="30.79" y="27.39">e magna aliquam e</tspan><tspan class="cls-33" x="75.65" y="27.39">r</tspan><tspan class="cls-34" x="77.55" y="27.39">a</tspan><tspan x="80.32" y="27.39">t </tspan><tspan class="cls-13" x="83.58" y="27.39">v</tspan><tspan x="86.23" y="27.39">olutp</tspan><tspan class="cls-13" x="98.8" y="27.39">a</tspan><tspan x="101.57" y="27.39">t.</tspan></text><line class="cls-35" x1="12.88" y1="106.26" x2="241.22" y2="106.26"/><path class="cls-36" d="M44,128.89h1.35l0,0c0,1,0,2,0,3H44.08v1.43h1.27v-1.46l1.52,0,0,0v3H45.42v2.82h1.45l0,0v1.51l0,0H45.42v1.52h1.45l0,0c0,.5,0,1,0,1.51H45.41v1.27h1.44v-1.29l3,0,0,0v1.34h1.5v6H41V148H38.09v-1.42l1.4-.07v-2.94H36.71v-1.33h-1.5v-1.54H33.79v-1.5h1.38v-1.49H33.71v-1.48h3v1.45H38v-2.78h1.46v-1.47H38v-1.52h1.51v-4.32l0,0H41v2.76h3v-1.45Zm-4.44,13.22H44v-4.38H39.58Zm3,2.85L41.1,145v1.39h4.22V145L44,145v-1.39H42.54Zm4.33,3h2.92V145H48.33v1.49H46.87Zm-5.79-16v1.4h1.4v-1.4Zm-3,7.34H36.77v1.37H38Z"/><path class="cls-36" d="M29.42,131.86H27.93v-3H20.64v-2.86H14.78v-1.49h7.3v3h2.78v-1.42l-1.4-.07v-1.4h7.22V126H29.47v2.87h4.27l0,0v1.51h1.52l0,0,0,1.52-3,0,0,0v-1.45H29.39v1.45Zm-1.58-4.34V126.1H26.46v1.42Z"/><path class="cls-36" d="M51.34,123.06H41V112.92h10.3Zm-1.55-1.53v-7.21H42.58v7.21Z"/><path class="cls-36" d="M14.78,139.18H24.92v10.31H14.78ZM23.36,148v-7.21H16.15V148Z"/><path class="cls-36" d="M24.92,112.92v10.14H14.78V112.92Zm-1.54,1.39H16.17v7.21h7.21Z"/><path class="cls-36" d="M29.4,112.92v2.78h1.31v-1.39h3v1.4H32.3v1.5h1.38v3H32.27v-1.46H30.72l0,0V117.3H29.39v1.45l0,0h-3v-1.46h1.37v-1.5H26.46V114.3h1.45v-1.38Z"/><path class="cls-36" d="M46.87,131.88v-1.49H49.8v-1.47H48.41V124.6h1.42v3h1.51v4.32H49.9v1.49h1.44v2.83H49.89l-.09-1.36H48.33v-3H46.85Z"/><path class="cls-36" d="M27.92,142.16v1.32h1.47v3h2.8V148H30.73v1.54H26.41v-7.33Z"/><path class="cls-36" d="M39.54,112.92v4.27H38.07v-1.42h-2.8v-1.5h2.78v-1.35Z"/><path class="cls-36" d="M46.84,139.19h4.5v3h-1.5l0,0v-1.52h-3l0,0v-1.52Z"/><path class="cls-36" d="M14.78,131.87h1.28v5.82H14.78Z"/><path class="cls-36" d="M14.78,127.55h2.81v1.34l0,0H16.14v1.51H14.78Z"/><path class="cls-36" d="M35.22,149.49v-2.94h1.5v2.94Z"/><path class="cls-36" d="M33.72,124.57h1.47v-3h1.54V123H38v-1.44H36.7l0-1.35,0,0h2.82v4.32l0,0H38v1.52l0,0H36.77v1.52h1.29l0,0v1.3l-1.31.08v1.46l-1.52,0,0,0v-1.51H33.71l0,0v-1.32h1.44v-1.48H33.74v-1.54Z"/><path class="cls-36" d="M44.05,128.87H42.59v-4.26H44v4.28Z"/><path class="cls-36" d="M30.72,118.73V123h-1.3v-4.27l0,0h1.36Z"/><path class="cls-36" d="M36.73,120.22H35.28V117.3h1.43v3Z"/><path class="cls-36" d="M33.74,124.55H32.29v-2.93h1.43v2.95Z"/><path class="cls-36" d="M27.87,120.28V123h-1.4v-2.72Z"/><path class="cls-36" d="M39.53,124.57H41V126H39.53l0,0v-1.52Z"/><path class="cls-36" d="M39.53,126v1.52l0,0H38l0,0V126l0,0h1.52Z"/><path class="cls-36" d="M46.82,124.6V126H45.41V124.6Z"/><path class="cls-36" d="M45.37,128.89v-1.28H46.8v1.26H45.35Z"/><path class="cls-36" d="M17.59,128.89h1.48v3h3l0,0v5.77H20.62v-1.38h-1.5v1.39H17.67v-2.76h2.88V133.4H17.61v-4.54Z"/><path class="cls-36" d="M32.22,131.86l0,1.52H30.76v1.44l-1.34.07v1.27h-1.5v4.53H26.47V134.9l1.42-.08V133.4h1.53v-1.54l0,0h2.85Z"/><path class="cls-36" d="M27.9,140.67h4.34v1.52H27.9Z"/><path class="cls-36" d="M22.1,131.88v-1.45h2.76v1.43H22.08Z"/><path class="cls-36" d="M24.89,136.25v1.39H23.46v-1.39Z"/><path class="cls-36" d="M24.88,133.41v1.39H23.47v-1.39Z"/><path class="cls-36" d="M35.23,142.16v1.33h1.5v1.45h-3v-1.45H32.22l0,0,0-1.35Z"/><path class="cls-36" d="M32.22,143.49v1.45H30.79v-1.43h1.45Z"/><path class="cls-36" d="M46.87,137.7v-1.45H48.3v1.43H46.84Z"/><path class="cls-36" d="M32.22,133.35h1.52v2.85H32.25l0,0Z"/><path class="cls-36" d="M30.75,137.7v-1.47h1.53l0,0v1.46H30.72Z"/><path class="cls-36" d="M30.72,137.67v1.45H29.46V137.7h1.29Z"/><path class="cls-36" d="M42.47,140.65H41.09v-1.43h1.38Z"/><path class="cls-36" d="M35.21,131.86h1.52v1.49h1.33v1.52H35.21Z"/><path class="cls-36" d="M36.71,131.88v-1.52h1.35v1.52Z"/><path class="cls-36" d="M44.09,115.79h4.22v4.38H44.09Z"/><path class="cls-36" d="M22.05,146.46H17.66v-4.24h4.39Z"/><path class="cls-36" d="M17.64,120.19V115.8H22v4.39Z"/><path class="cls-36" d="M204.8,112.62v31.54h-3V112.62Z"/><path class="cls-36" d="M185.08,112.62v31.54h-3V112.62Z"/><path class="cls-36" d="M211.63,112.62v31.54h-3V112.62Z"/><path class="cls-36" d="M163.08,112.62v31.54h-3V112.62Z"/><path class="cls-36" d="M171.43,112.62v31.54h-2.28V112.62Z"/><path class="cls-36" d="M236.66,112.62v31.54h-2.28V112.62Z"/><path class="cls-36" d="M176,112.62v31.54H173.7V112.62Z"/><path class="cls-36" d="M137.29,112.62v31.54H135V112.62Z"/><path class="cls-36" d="M159.29,112.62v31.54H157V112.62Z"/><path class="cls-36" d="M143.36,112.62v31.54h-2.27V112.62Z"/><path class="cls-36" d="M195.7,112.62v31.54h-2.28V112.62Z"/><path class="cls-36" d="M201,112.62v31.54h-2.28V112.62Z"/><path class="cls-36" d="M154,112.62v31.54H151.7V112.62Z"/><path class="cls-36" d="M188.11,112.62v31.54h-2.27V112.62Z"/><path class="cls-36" d="M123.64,112.62v31.6l-1.52.09V112.62Z"/><path class="cls-36" d="M179,112.62v30c0,1,.2,2.13-1.52,1.54v-31.5Z"/><path class="cls-36" d="M192.67,112.62V144c-1.72.92-1.52-.37-1.52-1.39v-30Z"/><path class="cls-36" d="M132,112.62v30c0,1,.2,2.13-1.51,1.54v-31.5Z"/><path class="cls-36" d="M219.21,112.62v30c0,1,.2,2.13-1.51,1.54v-31.5Z"/><path class="cls-36" d="M145.64,112.62v30c0,1,.2,2.13-1.52,1.54v-31.5Z"/><path class="cls-36" d="M227.56,112.62V144c-1.72.92-1.52-.37-1.52-1.39v-30Z"/><path class="cls-36" d="M151,112.62v30c0,1,.2,2.13-1.52,1.54v-31.5Z"/><path class="cls-36" d="M232.11,112.62v30c0,1,.2,2.13-1.52,1.54v-31.5Z"/><path class="cls-36" d="M240.45,144.31h-1.52V112.62h1.52Z"/><path class="cls-36" d="M167.63,112.62v30c0,1,.2,2.13-1.51,1.54v-31.5Z"/><ellipse class="cls-36" cx="124.78" cy="128.42" rx="0.54" ry="22.33"/><ellipse class="cls-36" cx="127.05" cy="128.42" rx="0.54" ry="22.33"/><ellipse class="cls-36" cx="133.88" cy="128.42" rx="0.54" ry="22.33"/><ellipse class="cls-36" cx="147.53" cy="128.42" rx="0.54" ry="22.33"/><ellipse class="cls-36" cx="155.88" cy="128.42" rx="0.54" ry="22.33"/><ellipse class="cls-36" cx="139.19" cy="128.42" rx="0.54" ry="22.33"/><ellipse class="cls-36" cx="189.25" cy="128.42" rx="0.54" ry="22.33"/><ellipse class="cls-36" cx="214.28" cy="128.42" rx="0.54" ry="22.33"/><ellipse class="cls-36" cx="216.56" cy="128.42" rx="0.54" ry="22.33"/><ellipse class="cls-36" cx="180.91" cy="128.42" rx="0.54" ry="22.33"/><ellipse class="cls-36" cx="222.63" cy="128.42" rx="0.54" ry="22.33"/><ellipse class="cls-36" cx="224.14" cy="128.42" rx="0.54" ry="22.33"/><ellipse class="cls-36" cx="197.6" cy="128.42" rx="0.54" ry="22.33"/><ellipse class="cls-36" cx="205.94" cy="128.42" rx="0.54" ry="22.33"/><ellipse class="cls-36" cx="172.56" cy="128.42" rx="0.54" ry="22.33"/><ellipse class="cls-36" cx="237.8" cy="128.42" rx="0.54" ry="22.33"/><ellipse class="cls-36" cx="164.22" cy="128.42" rx="0.54" ry="22.33"/><ellipse class="cls-36" cx="207.46" cy="128.42" rx="0.54" ry="22.33"/><text class="cls-4" transform="translate(165.08 149.01)">30-1415-9265</text><rect class="cls-37" x="120.5" y="142.5" width="122" height="2"/></g></g></svg>