<svg xmlns="http://www.w3.org/2000/svg" viewBox="0 0 253 161"><defs><style>.cls-1,.cls-3{fill:#e6e6e6;}.cls-1,.cls-2,.cls-24,.cls-4,.cls-5,.cls-6{stroke:#999;}.cls-1,.cls-2,.cls-4,.cls-5,.cls-6{stroke-linecap:round;stroke-linejoin:round;}.cls-1,.cls-4,.cls-5,.cls-6{stroke-width:3px;}.cls-2,.cls-4,.cls-5{fill:none;}.cls-2{stroke-width:1.5px;}.cls-5{stroke-dasharray:4.7 4.7;}.cls-11,.cls-19,.cls-24,.cls-25,.cls-6,.cls-7,.cls-8,.cls-9{fill:#999;}.cls-7{font-size:30px;}.cls-11,.cls-19,.cls-7,.cls-8,.cls-9{font-family:Calibri-Bold, Calibri;font-weight:700;}.cls-8{font-size:8px;}.cls-9{font-size:14px;}.cls-10{letter-spacing:-0.01em;}.cls-11{font-size:11px;}.cls-12{letter-spacing:-0.09em;}.cls-13{letter-spacing:-0.01em;}.cls-14{letter-spacing:0em;}.cls-15{letter-spacing:-0.02em;}.cls-16{letter-spacing:-0.01em;}.cls-17{letter-spacing:-0.01em;}.cls-18{letter-spacing:-0.01em;}.cls-19{font-size:12px;}.cls-20{letter-spacing:-0.06em;}.cls-21{letter-spacing:-0.02em;}.cls-22{fill:#fff;}.cls-23{fill:#e1e1e1;}.cls-24{stroke-miterlimit:10;stroke-width:0.25px;}</style></defs><g id="Layer_2" data-name="Layer 2"><g id="Layer_1-2" data-name="Layer 1"><g id="ID_Front" data-name="ID Front"><rect class="cls-1" x="1.5" y="1.5" width="250" height="158" rx="11.81"/><line class="cls-1" x1="98.5" y1="62.5" x2="229.4" y2="62.5"/><line class="cls-1" x1="98.5" y1="108.68" x2="229.4" y2="108.68"/><line class="cls-1" x1="168.5" y1="108.68" x2="168.5" y2="145.5"/></g><path class="cls-2" d="M39.5,119.5a14.13,14.13,0,0,0-5,8c-.38,2.12.17,2.63,0,6-.19,3.88-.38,7.59-3,10a7.94,7.94,0,0,1-6,2c-2.68-.33-4.14-1.42-5-4a5.71,5.71,0,0,1,1-6c3-3.92,7.39-5.25,10-6a27.19,27.19,0,0,1,9-1,5.82,5.82,0,0,0-1,4c.08.54.27,1.74,1,2,1,.37,2.45-1.34,3-2a10.1,10.1,0,0,0,2-4,3.26,3.26,0,0,0,0,4c1,1.05,2.93.69,4,0,1.76-1.12,1.37-3.15,3-4a5.73,5.73,0,0,1,4,0c0,.33-5-2-7,2a2.5,2.5,0,0,0,1,3c1.33.66,3.81-.82,6-4-.49,1.19-.59,2.44,0,3,.83.79,2.9.14,4-1s.82-2.38,2-3a1.89,1.89,0,0,1,2,0c.61.59.29,2.23-1,4a7.38,7.38,0,0,1,4-4c.32-.11,2.3-.81,3,0s-.65,2.22,0,4c.34.94,1.2.86,2,1,1.75.3,4.14-2,6-7"/><line class="cls-3" x1="16.5" y1="141.5" x2="91.99" y2="141.5"/><line class="cls-4" x1="16.5" y1="141.5" x2="19" y2="141.5"/><line class="cls-5" x1="23.7" y1="141.5" x2="87.14" y2="141.5"/><line class="cls-4" x1="89.49" y1="141.5" x2="91.99" y2="141.5"/><rect class="cls-6" x="14.5" y="11.5" width="116" height="8" rx="4"/><text class="cls-7" transform="translate(202.85 33.12)">ID</text><text class="cls-8" transform="translate(100.38 40.51)">Name</text><text class="cls-9" transform="translate(100.92 54.45)">Dela Cruz, Juan B.</text><text class="cls-8" transform="translate(100.38 74.51)">Add<tspan class="cls-10" x="13.43" y="0">r</tspan><tspan x="16.19" y="0">ess</tspan></text><text class="cls-11" transform="translate(100.92 89.42)">01 <tspan class="cls-12" x="13.64" y="0">T</tspan><tspan x="18.13" y="0">empla Rd. Gui</tspan><tspan class="cls-13" x="82.27" y="0">w</tspan><tspan class="cls-14" x="90.35" y="0">anon,</tspan><tspan x="0" y="13">Bacl</tspan><tspan class="cls-15" x="18.9" y="13">a</tspan><tspan class="cls-16" x="24.13" y="13">y</tspan><tspan x="29.23" y="13">on 6301 Bohol</tspan></text><text class="cls-8" transform="translate(100.38 121.51)">D<tspan class="cls-17" x="5.04" y="0">a</tspan><tspan class="cls-18" x="8.92" y="0">t</tspan><tspan x="11.59" y="0">e of Birth</tspan></text><text class="cls-19" transform="translate(100.92 136.1)">13 Jul<tspan class="cls-20" x="28.24" y="0">y</tspan><tspan x="33.19" y="0">, 1985</tspan></text><text class="cls-8" transform="translate(177.38 121.51)">S<tspan class="cls-21" x="3.78" y="0">e</tspan><tspan x="7.68" y="0">x</tspan></text><text class="cls-19" transform="translate(177.92 136.1)">M</text><text class="cls-8" transform="translate(15.98 28.43)">30-1415-9265</text><rect class="cls-22" x="14" y="33" width="76" height="83" rx="8.87"/><circle class="cls-23" cx="52" cy="73" r="29"/><rect class="cls-24" x="36.92" y="70.97" width="3.48" height="3.48" rx="1.74"/><rect class="cls-25" x="63.6" y="70.97" width="3.48" height="3.48" rx="1.74"/><path class="cls-4" d="M56.51,75.16A4.56,4.56,0,0,1,52,77.93a4.56,4.56,0,0,1-4.51-2.77"/></g></g></svg>