<?xml version="1.0" encoding="utf-8"?>
<!-- Generator: Adobe Illustrator 25.2.1, SVG Export Plug-In . SVG Version: 6.00 Build 0)  -->
<svg version="1.1" id="Layer_1" xmlns:svgjs="http://svgjs.com/svgjs"
	 xmlns="http://www.w3.org/2000/svg" xmlns:xlink="http://www.w3.org/1999/xlink" x="0px" y="0px" viewBox="0 0 512 512"
	 style="enable-background:new 0 0 512 512;" xml:space="preserve">
<style type="text/css">
	.st0{opacity:0.5;}
	.st1{fill:url(#SVGID_1_);}
	.st2{fill:#50CD89;}
	.st3{fill:#85DCAD;}
	.st4{fill:#D7F4E4;}
	.st5{fill:url(#SVGID_2_);}
	.st6{fill:#19A548;}
	.st7{fill:#179D49;}
</style>
<g class="st0">
	
		<linearGradient id="SVGID_1_" gradientUnits="userSpaceOnUse" x1="99.9979" y1="179.1649" x2="414.1396" y2="413.0134" gradientTransform="matrix(0.9921 -0.1258 0.1258 0.9921 -36.3988 33.0908)">
		<stop  offset="1.601925e-02" style="stop-color:#189D4A"/>
		<stop  offset="0.4087" style="stop-color:#1B7656"/>
		<stop  offset="1" style="stop-color:#20356A"/>
	</linearGradient>
	<path class="st1" d="M425.1,154.6l27.6,217.6c1.3,9.9-1.7,19.6-7.4,27c-5.7,7.4-14.4,12.6-24.3,13.9l-316,40.1
		c-9.9,1.3-19.6-1.7-27-7.4c-7.4-5.7-12.6-14.4-13.9-24.3L36.6,203.8c-1.3-9.9,1.7-19.6,7.4-27c5.7-7.4,14.4-12.6,24.3-13.9
		L339,128.6l36.2,0.6l35,0.3c0.4,0.3,0.7,0.5,1,0.8C418.6,136,423.8,144.7,425.1,154.6z"/>
	<path class="st2" d="M425.1,154.6l27.6,217.6c1.3,9.9-1.7,19.6-7.4,27c-5.7,7.4-14.4,12.6-24.3,13.9l-316,40.1
		c-9.9,1.3-19.6-1.7-27-7.4c-7.4-5.7-12.6-14.4-13.9-24.3L36.6,203.8c-1.3-9.9,1.7-19.6,7.4-27c5.7-7.4,14.4-12.6,24.3-13.9
		L339,128.6l36.2,0.6l35,0.3c0.4,0.3,0.7,0.5,1,0.8C418.6,136,423.8,144.7,425.1,154.6z"/>
	<path class="st3" d="M425.1,154.6l27.6,217.6c1.3,9.9-1.7,19.6-7.4,27c-5.7,7.4-14.4,12.6-24.3,13.9L263.8,433L227,142.8
		l157.2-19.9c9.5-1.2,18.7,1.4,25.9,6.6c0.4,0.3,0.7,0.5,1,0.8C418.6,136,423.8,144.7,425.1,154.6z"/>
	<path class="st4" d="M181.8,283.7c2.5,20.1-11.6,38.3-31.7,40.9c-20.1,2.5-38.3-11.6-40.9-31.7s11.6-38.3,31.7-40.9
		S179.3,263.6,181.8,283.7z M204.7,366.8l1.5,12.1c0.9,6.8-3.8,12.8-10.6,13.6l-72.5,9.2c-6.8,0.9-12.8-3.8-13.6-10.6l-1.2-9.4
		c-3-23.9,10.6-48.5,33.8-55.4c2.8-0.9,5.5-1.4,8.1-1.8C176.8,321.2,201.3,340.2,204.7,366.8z"/>
	<path class="st3" d="M181.8,283.7c2.5,20.1-11.6,38.3-31.7,40.9L141,252C161,249.5,179.3,263.6,181.8,283.7z M204.7,366.8l1.5,12.1
		c0.9,6.8-3.8,12.8-10.6,13.6l-36.3,4.6l-9.2-72.5C176.8,321.2,201.3,340.2,204.7,366.8z"/>
	<circle class="st4" cx="328.5" cy="265.1" r="12.2"/>
	<circle class="st4" cx="376.9" cy="259" r="12.2"/>
	<circle class="st4" cx="280.2" cy="271.2" r="12.2"/>
	<path class="st4" d="M384.6,319.4l-96.7,12.3c-6.7,0.8-12.8-3.9-13.6-10.6c-0.8-6.7,3.9-12.8,10.6-13.6l96.7-12.3
		c6.7-0.8,12.8,3.9,13.6,10.6C396,312.5,391.2,318.6,384.6,319.4z M401.3,354.1c0.8,6.7-3.9,12.8-10.6,13.6L294,380
		c-6.7,0.8-12.8-3.9-13.6-10.6c-0.8-6.7,3.9-12.8,10.6-13.6l96.7-12.3C394.3,342.7,400.4,347.5,401.3,354.1z"/>
</g>
<g>
	<g>
		<linearGradient id="SVGID_2_" gradientUnits="userSpaceOnUse" x1="97.0866" y1="164.2276" x2="411.2283" y2="398.0761">
			<stop  offset="1.601925e-02" style="stop-color:#189D4A"/>
			<stop  offset="0.4087" style="stop-color:#1B7656"/>
			<stop  offset="1" style="stop-color:#20356A"/>
		</linearGradient>
		<path class="st5" d="M439.6,163.6V383c0,10-4.1,19.3-10.7,25.8c-6.6,6.6-15.8,10.7-25.8,10.7H84.6c-10,0-19.3-4.1-25.8-10.7
			C52.1,402.3,48,393,48,383V163.6c0-10,4.1-19.3,10.7-25.8c6.6-6.6,15.8-10.7,25.8-10.7h272.9l35.8,5.1l34.7,4.7
			c0.3,0.3,0.6,0.6,0.9,0.9C435.5,144.4,439.6,153.6,439.6,163.6z"/>
		<path class="st2" d="M439.6,163.6V383c0,10-4.1,19.3-10.7,25.8c-6.6,6.6-15.8,10.7-25.8,10.7H84.6c-10,0-19.3-4.1-25.8-10.7
			C52.1,402.3,48,393,48,383V163.6c0-10,4.1-19.3,10.7-25.8c6.6-6.6,15.8-10.7,25.8-10.7h272.9l35.8,5.1l34.7,4.7
			c0.3,0.3,0.6,0.6,0.9,0.9C435.5,144.4,439.6,153.6,439.6,163.6z"/>
		<path class="st3" d="M439.6,163.6V383c0,10-4.1,19.3-10.7,25.8c-6.6,6.6-15.8,10.7-25.8,10.7H244.6V127.1h158.4
			c9.5,0,18.4,3.8,24.9,9.8c0.3,0.3,0.6,0.6,0.9,0.9C435.5,144.4,439.6,153.6,439.6,163.6z"/>
		<path class="st4" d="M182.1,261.1c0,20.2-16.3,36.6-36.6,36.6s-36.6-16.3-36.6-36.6c0-20.2,16.3-36.6,36.6-36.6
			S182.1,240.9,182.1,261.1z M194.2,346.4v12.2c0,6.8-5.4,12.2-12.2,12.2h-73.1c-6.8,0-12.2-5.4-12.2-12.2v-9.5
			c0-24.1,16.6-46.8,40.5-50.7c2.9-0.5,5.6-0.7,8.3-0.7C172.3,297.7,194.2,319.6,194.2,346.4z"/>
		<path class="st3" d="M182.1,261.1c0,20.2-16.3,36.6-36.6,36.6v-73.1C165.7,224.6,182.1,240.9,182.1,261.1z M194.2,346.4v12.2
			c0,6.8-5.4,12.2-12.2,12.2h-36.6v-73.1C172.3,297.7,194.2,319.6,194.2,346.4z"/>
		<circle class="st4" cx="329.9" cy="261.1" r="12.2"/>
		<circle class="st4" cx="378.7" cy="261.1" r="12.2"/>
		<circle class="st4" cx="281.2" cy="261.1" r="12.2"/>
		<path class="st4" d="M378.7,322.1h-97.5c-6.7,0-12.2-5.5-12.2-12.2s5.5-12.2,12.2-12.2h97.5c6.7,0,12.2,5.5,12.2,12.2
			S385.4,322.1,378.7,322.1z M390.9,358.6c0,6.7-5.5,12.2-12.2,12.2h-97.5c-6.7,0-12.2-5.5-12.2-12.2s5.5-12.2,12.2-12.2h97.5
			C385.4,346.4,390.9,351.9,390.9,358.6z"/>
	</g>
	<g>
		<path class="st6" d="M366.5,29.6c-53.9,0-97.5,43.6-97.5,97.5s43.6,97.5,97.5,97.5s97.5-43.6,97.5-97.5S420.4,29.6,366.5,29.6z"/>
		<path class="st7" d="M464,127.1c0,53.9-43.6,97.5-97.5,97.5v-195C420.4,29.6,464,73.2,464,127.1z"/>
		<path class="st4" d="M411.6,111.2l-45.1,45.1l-3.7,3.7c-2.2,2.4-5.4,3.7-8.5,3.7s-6.3-1.2-8.5-3.7l-24.4-24.4
			c-4.9-4.6-4.9-12.4,0-17.1c4.6-4.9,12.4-4.9,17.1,0l15.8,15.6l12.2-12.2l28-27.8c4.6-4.9,12.4-4.9,17.1,0
			C416.5,98.8,416.5,106.6,411.6,111.2z"/>
		<path class="st3" d="M411.6,111.2l-45.1,45.1v-34.4l28-27.8c4.6-4.9,12.4-4.9,17.1,0C416.5,98.8,416.5,106.6,411.6,111.2z"/>
	</g>
</g>
</svg>
