<svg xmlns="http://www.w3.org/2000/svg" viewBox="0 0 223.55 223.55"><defs><style>.cls-1{fill:none;stroke:#231f20;stroke-linecap:round;stroke-miterlimit:10;stroke-width:6px;}.cls-2{fill:#231f20;}</style></defs><g id="Layer_2" data-name="Layer 2"><g id="Layer_1-2" data-name="Layer 1"><path class="cls-1" d="M22.31,173.66a108.84,108.84,0,0,1,0-123.78"/><path class="cls-1" d="M173.72,201.2a108.83,108.83,0,0,1-123.89,0"/><path class="cls-1" d="M201.45,50.2a108.8,108.8,0,0,1,0,123.15"/><path class="cls-1" d="M50.25,22.06a108.83,108.83,0,0,1,123.05,0"/><rect class="cls-2" x="100.1" y="14.08" width="7.97" height="7.97"/><rect class="cls-2" x="84.15" y="14.08" width="7.97" height="7.97"/><rect class="cls-2" x="116.05" y="14.08" width="7.97" height="7.97"/><rect class="cls-2" x="132" y="14.08" width="7.97" height="7.97"/><rect class="cls-2" x="100.1" y="201.2" width="7.97" height="7.97"/><rect class="cls-2" x="84.15" y="201.2" width="7.97" height="7.97"/><rect class="cls-2" x="116.05" y="201.2" width="7.97" height="7.97"/><rect class="cls-2" x="132" y="201.2" width="7.97" height="7.97"/><rect class="cls-2" x="14.34" y="99.81" width="7.97" height="7.97" transform="translate(122.13 85.47) rotate(90)"/><rect class="cls-2" x="14.34" y="83.86" width="7.97" height="7.97" transform="translate(106.18 69.52) rotate(90)"/><rect class="cls-2" x="14.34" y="115.76" width="7.97" height="7.97" transform="translate(138.08 101.42) rotate(90)"/><rect class="cls-2" x="14.34" y="131.71" width="7.97" height="7.97" transform="translate(154.02 117.37) rotate(90)"/><rect class="cls-2" x="201.45" y="99.81" width="7.97" height="7.97" transform="translate(309.24 -101.64) rotate(90)"/><rect class="cls-2" x="201.45" y="83.86" width="7.97" height="7.97" transform="translate(293.29 -117.59) rotate(90)"/><rect class="cls-2" x="201.45" y="115.76" width="7.97" height="7.97" transform="translate(325.19 -85.69) rotate(90)"/><rect class="cls-2" x="201.45" y="131.71" width="7.97" height="7.97" transform="translate(341.14 -69.74) rotate(90)"/></g></g></svg>